<svg width="166" height="64" viewBox="0 0 166 64" fill="none" xmlns="http://www.w3.org/2000/svg">
<path d="M37.5029 48H50.4207L18.4208 16H5.50293L37.5029 48Z" fill="white"/>
<path d="M25.0576 16L55.905 46.8474V16H47.5571V25.7391L37.818 16L25.0576 16Z" fill="white"/>
<path d="M0.0952148 17.0713V47.9999H8.44303V38.2607L18.1821 47.9999H31.0239L0.0952148 17.0713Z" fill="white"/>
<path d="M72.3657 25.8555L67.7251 40H63.9868L70.3267 22.9375H72.7056L72.3657 25.8555ZM76.2212 40L71.5688 25.8555L71.1938 22.9375H73.5962L79.9712 40H76.2212ZM76.0103 33.6484V36.4023H66.9985V33.6484H76.0103ZM84.7173 30.0859V40H81.3423V27.3203H84.5181L84.7173 30.0859ZM88.5376 27.2383L88.479 30.3672C88.3149 30.3438 88.1157 30.3242 87.8813 30.3086C87.6548 30.2852 87.4478 30.2734 87.2603 30.2734C86.7837 30.2734 86.3696 30.3359 86.0181 30.4609C85.6743 30.5781 85.3853 30.7539 85.1509 30.9883C84.9243 31.2227 84.7524 31.5078 84.6353 31.8438C84.5259 32.1797 84.4634 32.5625 84.4478 32.9922L83.7681 32.7812C83.7681 31.9609 83.8501 31.207 84.0142 30.5195C84.1782 29.8242 84.4165 29.2188 84.729 28.7031C85.0493 28.1875 85.4399 27.7891 85.9009 27.5078C86.3618 27.2266 86.8892 27.0859 87.4829 27.0859C87.6704 27.0859 87.8618 27.1016 88.0571 27.1328C88.2524 27.1562 88.4126 27.1914 88.5376 27.2383ZM96.9282 27.3203V29.7109H89.5454V27.3203H96.9282ZM91.3735 24.1914H94.7485V36.1797C94.7485 36.5469 94.7954 36.8281 94.8892 37.0234C94.9907 37.2188 95.1392 37.3555 95.3345 37.4336C95.5298 37.5039 95.7759 37.5391 96.0728 37.5391C96.2837 37.5391 96.4712 37.5312 96.6353 37.5156C96.8071 37.4922 96.9517 37.4688 97.0688 37.4453L97.0806 39.9297C96.7915 40.0234 96.479 40.0977 96.1431 40.1523C95.8071 40.207 95.436 40.2344 95.0298 40.2344C94.2876 40.2344 93.6392 40.1133 93.0845 39.8711C92.5376 39.6211 92.1157 39.2227 91.8188 38.6758C91.522 38.1289 91.3735 37.4102 91.3735 36.5195V24.1914ZM105.213 36.4375L109.233 22.9375H113.147L107.206 40H104.627L105.213 36.4375ZM101.51 22.9375L105.518 36.4375L106.127 40H103.526L97.6196 22.9375H101.51ZM119.85 40.2344C118.866 40.2344 117.983 40.0781 117.202 39.7656C116.42 39.4453 115.756 39.0039 115.209 38.4414C114.67 37.8789 114.256 37.2266 113.967 36.4844C113.678 35.7344 113.534 34.9375 113.534 34.0938V33.625C113.534 32.6641 113.67 31.7852 113.944 30.9883C114.217 30.1914 114.608 29.5 115.116 28.9141C115.631 28.3281 116.256 27.8789 116.991 27.5664C117.725 27.2461 118.553 27.0859 119.475 27.0859C120.374 27.0859 121.17 27.2344 121.866 27.5312C122.561 27.8281 123.143 28.25 123.612 28.7969C124.088 29.3438 124.448 30 124.69 30.7656C124.932 31.5234 125.053 32.3672 125.053 33.2969V34.7031H114.975V32.4531H121.737V32.1953C121.737 31.7266 121.651 31.3086 121.479 30.9414C121.315 30.5664 121.065 30.2695 120.729 30.0508C120.393 29.832 119.963 29.7227 119.44 29.7227C118.995 29.7227 118.612 29.8203 118.292 30.0156C117.971 30.2109 117.709 30.4844 117.506 30.8359C117.311 31.1875 117.163 31.6016 117.061 32.0781C116.967 32.5469 116.92 33.0625 116.92 33.625V34.0938C116.92 34.6016 116.991 35.0703 117.131 35.5C117.28 35.9297 117.487 36.3008 117.752 36.6133C118.026 36.9258 118.354 37.168 118.737 37.3398C119.127 37.5117 119.569 37.5977 120.061 37.5977C120.67 37.5977 121.237 37.4805 121.76 37.2461C122.292 37.0039 122.749 36.6406 123.131 36.1562L124.772 37.9375C124.506 38.3203 124.143 38.6875 123.682 39.0391C123.229 39.3906 122.682 39.6797 122.042 39.9062C121.401 40.125 120.67 40.2344 119.85 40.2344ZM130.28 30.0273V40H126.905V27.3203H130.069L130.28 30.0273ZM129.788 33.2148H128.874C128.874 32.2773 128.995 31.4336 129.237 30.6836C129.479 29.9258 129.819 29.2812 130.256 28.75C130.694 28.2109 131.213 27.8008 131.815 27.5195C132.424 27.2305 133.104 27.0859 133.854 27.0859C134.448 27.0859 134.991 27.1719 135.483 27.3438C135.975 27.5156 136.397 27.7891 136.749 28.1641C137.108 28.5391 137.381 29.0352 137.569 29.6523C137.764 30.2695 137.862 31.0234 137.862 31.9141V40H134.463V31.9023C134.463 31.3398 134.385 30.9023 134.229 30.5898C134.073 30.2773 133.842 30.0586 133.538 29.9336C133.241 29.8008 132.874 29.7344 132.436 29.7344C131.983 29.7344 131.588 29.8242 131.252 30.0039C130.924 30.1836 130.651 30.4336 130.432 30.7539C130.221 31.0664 130.061 31.4336 129.952 31.8555C129.842 32.2773 129.788 32.7305 129.788 33.2148ZM147.928 36.9648V27.3203H151.303V40H148.127L147.928 36.9648ZM148.303 34.3633L149.299 34.3398C149.299 35.1836 149.202 35.9688 149.006 36.6953C148.811 37.4141 148.518 38.0391 148.127 38.5703C147.737 39.0938 147.245 39.5039 146.651 39.8008C146.057 40.0898 145.358 40.2344 144.553 40.2344C143.936 40.2344 143.366 40.1484 142.842 39.9766C142.327 39.7969 141.881 39.5195 141.506 39.1445C141.139 38.7617 140.85 38.2734 140.639 37.6797C140.436 37.0781 140.334 36.3555 140.334 35.5117V27.3203H143.709V35.5352C143.709 35.9102 143.752 36.2266 143.838 36.4844C143.932 36.7422 144.061 36.9531 144.225 37.1172C144.389 37.2812 144.581 37.3984 144.799 37.4688C145.026 37.5391 145.276 37.5742 145.549 37.5742C146.245 37.5742 146.792 37.4336 147.19 37.1523C147.596 36.8711 147.881 36.4883 148.045 36.0039C148.217 35.5117 148.303 34.9648 148.303 34.3633ZM159.717 40.2344C158.733 40.2344 157.85 40.0781 157.069 39.7656C156.288 39.4453 155.624 39.0039 155.077 38.4414C154.538 37.8789 154.124 37.2266 153.834 36.4844C153.545 35.7344 153.401 34.9375 153.401 34.0938V33.625C153.401 32.6641 153.538 31.7852 153.811 30.9883C154.084 30.1914 154.475 29.5 154.983 28.9141C155.499 28.3281 156.124 27.8789 156.858 27.5664C157.592 27.2461 158.42 27.0859 159.342 27.0859C160.241 27.0859 161.038 27.2344 161.733 27.5312C162.428 27.8281 163.01 28.25 163.479 28.7969C163.956 29.3438 164.315 30 164.557 30.7656C164.799 31.5234 164.92 32.3672 164.92 33.2969V34.7031H154.842V32.4531H161.604V32.1953C161.604 31.7266 161.518 31.3086 161.346 30.9414C161.182 30.5664 160.932 30.2695 160.596 30.0508C160.26 29.832 159.831 29.7227 159.307 29.7227C158.862 29.7227 158.479 29.8203 158.159 30.0156C157.838 30.2109 157.577 30.4844 157.374 30.8359C157.178 31.1875 157.03 31.6016 156.928 32.0781C156.834 32.5469 156.788 33.0625 156.788 33.625V34.0938C156.788 34.6016 156.858 35.0703 156.999 35.5C157.147 35.9297 157.354 36.3008 157.62 36.6133C157.893 36.9258 158.221 37.168 158.604 37.3398C158.995 37.5117 159.436 37.5977 159.928 37.5977C160.538 37.5977 161.104 37.4805 161.627 37.2461C162.159 37.0039 162.616 36.6406 162.999 36.1562L164.639 37.9375C164.374 38.3203 164.01 38.6875 163.549 39.0391C163.096 39.3906 162.549 39.6797 161.909 39.9062C161.268 40.125 160.538 40.2344 159.717 40.2344Z" fill="white"/>
</svg>
