<svg width="4666" height="1787" viewBox="0 0 4666 1787" fill="none" xmlns="http://www.w3.org/2000/svg">
<path d="M2194.26 1280.77C2273.41 1280.77 2285.8 1327.8 2285.8 1358.47C2285.8 1389.14 2273.41 1436.17 2194.26 1436.17C2115.12 1436.17 2102.73 1389.14 2102.73 1358.47C2102.73 1327.8 2115.12 1280.77 2194.26 1280.77ZM2194.26 1408.21C2230.56 1408.21 2243.34 1381.39 2243.34 1358.54C2243.34 1335.68 2230.56 1308.86 2194.26 1308.86C2157.97 1308.86 2145.19 1335.68 2145.19 1358.54C2145.19 1381.39 2157.97 1408.21 2194.26 1408.21Z" fill="white"/>
<path d="M2303.94 1284.95H2343.95V1369.46C2343.95 1383.9 2344.54 1408.21 2381.24 1408.21C2417.93 1408.21 2418.53 1383.9 2418.53 1369.46V1284.95H2458.53V1379.33C2458.53 1395.83 2456.48 1436.23 2381.24 1436.23C2306 1436.23 2303.94 1395.83 2303.94 1379.33V1284.95Z" fill="white"/>
<path d="M2484.89 1284.95H2591.85C2632.65 1284.95 2639.47 1309.92 2639.47 1324.95C2639.47 1342.9 2632.26 1354.43 2615.57 1360.39V1360.79C2633.12 1363.44 2635.77 1385.76 2635.77 1400.13C2635.77 1407.35 2636.36 1424.64 2643.38 1432.06H2599.67C2595.96 1425.24 2595.76 1419.28 2595.76 1403.84C2595.76 1383.24 2586.89 1378.08 2574.5 1378.08H2524.83V1432.06H2484.82V1284.88L2484.89 1284.95ZM2524.89 1350.06H2577.88C2586.75 1350.06 2597.02 1345.09 2597.02 1331.31C2597.02 1316.67 2585.5 1312.96 2575.76 1312.96H2524.83V1350.06H2524.89Z" fill="white"/>
<path d="M2829.96 1350.06H2905V1432.13H2884.8L2879.43 1415.04C2865.39 1430.07 2843.14 1436.3 2817.57 1436.3C2763.99 1436.3 2730.61 1413.18 2730.61 1358.6C2730.61 1313.03 2761.94 1280.91 2817.57 1280.91C2858.37 1280.91 2896.92 1292.9 2904.14 1333.3H2859.63C2853.67 1314.36 2836.52 1308.99 2822.14 1308.99C2785.85 1308.99 2773.06 1335.82 2773.06 1358.67C2773.06 1381.52 2785.85 1408.35 2822.14 1408.35C2844 1408.35 2860.89 1400.07 2865.66 1375.76H2830.02V1350.19L2829.96 1350.06Z" fill="white"/>
<path d="M2931.43 1284.95H3038.39C3079.19 1284.95 3086.01 1309.92 3086.01 1324.95C3086.01 1342.9 3078.79 1354.43 3062.1 1360.39V1360.79C3079.65 1363.44 3082.3 1385.76 3082.3 1400.13C3082.3 1407.35 3082.9 1424.64 3089.92 1432.06H3046.21C3042.5 1425.24 3042.3 1419.28 3042.3 1403.84C3042.3 1383.24 3033.42 1378.08 3021.04 1378.08H2971.36V1432.06H2931.36V1284.88L2931.43 1284.95ZM2971.43 1350.06H3024.42C3033.29 1350.06 3043.56 1345.09 3043.56 1331.31C3043.56 1316.67 3032.03 1312.96 3022.3 1312.96H2971.36V1350.06H2971.43Z" fill="white"/>
<path d="M3107.07 1284.95H3244.57V1312.96H3147.08V1343.5H3239.6V1370.33H3147.08V1404.11H3245.43V1432.13H3107.14V1284.95H3107.07Z" fill="white"/>
<path d="M3267.42 1284.95H3404.92V1312.96H3307.42V1343.5H3399.95V1370.33H3307.42V1404.11H3405.78V1432.13H3267.49V1284.95H3267.42Z" fill="white"/>
<path d="M3551.89 1284.95H3590.63V1432.13H3547.12L3466.91 1329.46H3466.51V1432.13H3427.77V1284.95H3474.13L3551.42 1387.61H3551.82V1284.95H3551.89Z" fill="white"/>
<path d="M3694.95 1284.95H3734.95V1432.13H3694.95V1284.95Z" fill="white"/>
<path d="M3862.51 1327.6C3860.06 1308.46 3841.72 1306.34 3825.62 1306.34C3809.53 1306.34 3798.4 1313.76 3798.4 1323.63C3798.4 1331.45 3805.02 1335.82 3815.29 1337.47L3865.36 1345.49C3892.19 1349.79 3912.58 1359.93 3912.58 1386.69C3912.58 1413.45 3894.04 1436.17 3836.09 1436.17C3800.19 1436.17 3753.63 1431.66 3753.23 1385.69H3798.14C3798.53 1405.9 3818.73 1409.41 3836.09 1409.41C3854.83 1409.41 3867.61 1403.84 3867.61 1391.06C3867.61 1379.73 3858.54 1376.62 3842.64 1374.17L3806.15 1368.6C3780.58 1364.7 3755.88 1357.08 3755.88 1326.94C3755.88 1294.15 3782.7 1280.77 3828.87 1280.77C3859.2 1280.77 3904.11 1285.94 3906.76 1327.54H3862.45L3862.51 1327.6Z" fill="white"/>
<path d="M4007.23 1284.95H4117.71C4139.16 1284.95 4159.17 1294.81 4159.17 1322.04C4159.17 1333.37 4153.4 1347.21 4139.56 1351.51V1351.91C4156.65 1354.83 4165.72 1371.72 4165.72 1387.55C4165.72 1407.15 4156.65 1432.06 4112.14 1432.06H4007.23V1284.88V1284.95ZM4047.23 1343.43H4102.87C4112.14 1343.43 4117.9 1338.47 4117.9 1327.54C4117.9 1318.26 4113.8 1311.64 4097.31 1311.64H4047.23V1343.37V1343.43ZM4047.23 1404.04H4106.18C4118.57 1404.04 4123.27 1396.03 4123.27 1386.75C4123.27 1375.23 4116.05 1369 4102.01 1369H4047.17V1404.04H4047.23Z" fill="white"/>
<path d="M4190.49 1284.95H4230.5V1402.85H4320.18V1432.13H4190.49V1284.95Z" fill="white"/>
<path d="M4337.73 1284.95H4377.73V1369.46C4377.73 1383.9 4378.33 1408.21 4415.02 1408.21C4451.71 1408.21 4452.31 1383.9 4452.31 1369.46V1284.95H4492.31V1379.33C4492.31 1395.83 4490.26 1436.23 4415.02 1436.23C4339.78 1436.23 4337.73 1395.83 4337.73 1379.33V1284.95Z" fill="white"/>
<path d="M4518.67 1284.95H4656.17V1312.96H4558.68V1343.5H4651.2V1370.33H4558.68V1404.11H4657.03V1432.13H4518.74V1284.95H4518.67Z" fill="white"/>
<path d="M4540.86 350.332H4021.6V579.846H4665.05V474.528C4665.05 405.905 4609.48 350.332 4540.86 350.332Z" fill="white"/>
<path d="M4665.05 637.34H4021.6V866.854H4665.05V637.34Z" fill="white"/>
<path d="M4665.05 924.414H4021.6V1153.93H4665.05V924.414Z" fill="white"/>
<path d="M3720.71 384.975L2952.42 1153.33H3227.61C3258.54 1153.33 3288.28 1141.01 3310.14 1119.15L3734.62 694.637V923.819H3635.21C3604.21 923.819 3574.54 936.14 3552.68 957.998L3357.36 1153.33H3964.18V350.73H3803.3C3772.37 350.73 3742.63 363.051 3720.78 384.909L3720.71 384.975Z" fill="white"/>
<path d="M3398.82 350.332C3367.89 350.332 3338.16 362.652 3316.3 384.511L2928.11 772.664V350.796H2803.86C2772.93 350.796 2743.19 363.116 2721.34 384.974L2334.08 772.2V580.309H2391.37V350.796H2228.24L2104.59 474.395V1153.27H2228.17C2259.11 1153.27 2288.84 1140.95 2310.7 1119.09L2698.55 731.199V1153.27H2822.61C2853.54 1153.27 2883.27 1140.95 2905.13 1119.09L3673.95 350.266H3398.76L3398.82 350.332Z" fill="white"/>
<path d="M1024.74 114.194L1543.2 415.642L1543.47 301.514L1024.94 0L505.151 299.262L504.754 493.471L602.314 550.303L1123.1 250.445L1024.54 193.149L716.895 370.269L717.093 291.314L1024.74 114.194Z" fill="white"/>
<path d="M266.385 358.744L786.703 60.4091L687.951 3.17969L167.633 301.448L166.904 901.297L334.868 998.799L432.826 942.696L433.554 341.721L334.67 398.42L334.272 753.388L265.921 713.778L266.385 358.744Z" fill="white"/>
<path d="M99.0167 1137.9L100.805 538.051L1.85449 594.883L0 1194.73L519.06 1495.32L687.487 1398.55L687.885 1285.68L167.832 984.559L167.501 1098.49L474.684 1276.4L406.2 1315.75L99.0167 1137.9Z" fill="white"/>
<path d="M690.005 1672.37L171.475 1370.86L171.21 1485.05L689.74 1786.56L1209.53 1487.24L1209.93 1293.03L1112.37 1236.2L591.65 1536.05L690.137 1593.35L997.784 1416.23L997.586 1495.25L690.005 1672.37Z" fill="white"/>
<path d="M1448.36 1427.75L927.976 1726.09L1026.73 1783.39L1547.11 1485.12L1547.77 885.268L1379.81 787.766L1281.85 843.869L1281.12 1444.78L1380.01 1388.14L1380.41 1033.18L1448.76 1072.79L1448.36 1427.75Z" fill="white"/>
<path d="M1615.66 648.665L1613.87 1248.51L1712.82 1191.62L1714.68 591.767L1195.62 291.246L1027.26 388.019L1026.79 500.889L1546.85 802.005L1547.18 688.01L1239.99 510.162L1308.54 470.817L1615.66 648.665Z" fill="white"/>
</svg>
