<svg width="134" height="64" viewBox="0 0 134 64" fill="none" xmlns="http://www.w3.org/2000/svg">
<path fill-rule="evenodd" clip-rule="evenodd" d="M16.5 48C25.3366 48 32.5 40.8366 32.5 32C32.5 23.1635 25.3366 16 16.5 16C7.66343 16 0.5 23.1635 0.5 32C0.5 40.8366 7.66343 48 16.5 48ZM21.4915 23.4535C21.7344 22.5904 20.8969 22.0801 20.132 22.625L9.4545 30.2317C8.62498 30.8226 8.75546 32 9.6505 32H12.4622V31.9782H17.942L13.477 33.5537L11.5086 40.5466C11.2656 41.4096 12.1031 41.9199 12.868 41.375L23.5455 33.7684C24.3751 33.1774 24.2445 32 23.3496 32H19.0857L21.4915 23.4535Z" fill="white"/>
<path d="M54.3633 37.2578V40H42.2695V37.2578H54.3633ZM54.1875 24.8945L43.8281 40H41.3555V37.9844L51.7969 22.9375H54.1875V24.8945ZM52.9805 22.9375V25.6914H41.3672V22.9375H52.9805ZM55.5938 33.7891V33.543C55.5938 32.6133 55.7266 31.7578 55.9922 30.9766C56.2578 30.1875 56.6445 29.5039 57.1523 28.9258C57.6602 28.3477 58.2852 27.8984 59.0273 27.5781C59.7695 27.25 60.6211 27.0859 61.582 27.0859C62.543 27.0859 63.3984 27.25 64.1484 27.5781C64.8984 27.8984 65.5273 28.3477 66.0352 28.9258C66.5508 29.5039 66.9414 30.1875 67.207 30.9766C67.4727 31.7578 67.6055 32.6133 67.6055 33.543V33.7891C67.6055 34.7109 67.4727 35.5664 67.207 36.3555C66.9414 37.1367 66.5508 37.8203 66.0352 38.4062C65.5273 38.9844 64.9023 39.4336 64.1602 39.7539C63.418 40.0742 62.5664 40.2344 61.6055 40.2344C60.6445 40.2344 59.7891 40.0742 59.0391 39.7539C58.2969 39.4336 57.668 38.9844 57.1523 38.4062C56.6445 37.8203 56.2578 37.1367 55.9922 36.3555C55.7266 35.5664 55.5938 34.7109 55.5938 33.7891ZM58.9688 33.543V33.7891C58.9688 34.3203 59.0156 34.8164 59.1094 35.2773C59.2031 35.7383 59.3516 36.1445 59.5547 36.4961C59.7656 36.8398 60.0391 37.1094 60.375 37.3047C60.7109 37.5 61.1211 37.5977 61.6055 37.5977C62.0742 37.5977 62.4766 37.5 62.8125 37.3047C63.1484 37.1094 63.418 36.8398 63.6211 36.4961C63.8242 36.1445 63.9727 35.7383 64.0664 35.2773C64.168 34.8164 64.2188 34.3203 64.2188 33.7891V33.543C64.2188 33.0273 64.168 32.543 64.0664 32.0898C63.9727 31.6289 63.8203 31.2227 63.6094 30.8711C63.4062 30.5117 63.1367 30.2305 62.8008 30.0273C62.4648 29.8242 62.0586 29.7227 61.582 29.7227C61.1055 29.7227 60.6992 29.8242 60.3633 30.0273C60.0352 30.2305 59.7656 30.5117 59.5547 30.8711C59.3516 31.2227 59.2031 31.6289 59.1094 32.0898C59.0156 32.543 58.9688 33.0273 58.9688 33.543ZM69.1406 33.7891V33.543C69.1406 32.6133 69.2734 31.7578 69.5391 30.9766C69.8047 30.1875 70.1914 29.5039 70.6992 28.9258C71.207 28.3477 71.832 27.8984 72.5742 27.5781C73.3164 27.25 74.168 27.0859 75.1289 27.0859C76.0898 27.0859 76.9453 27.25 77.6953 27.5781C78.4453 27.8984 79.0742 28.3477 79.582 28.9258C80.0977 29.5039 80.4883 30.1875 80.7539 30.9766C81.0195 31.7578 81.1523 32.6133 81.1523 33.543V33.7891C81.1523 34.7109 81.0195 35.5664 80.7539 36.3555C80.4883 37.1367 80.0977 37.8203 79.582 38.4062C79.0742 38.9844 78.4492 39.4336 77.707 39.7539C76.9648 40.0742 76.1133 40.2344 75.1523 40.2344C74.1914 40.2344 73.3359 40.0742 72.5859 39.7539C71.8438 39.4336 71.2148 38.9844 70.6992 38.4062C70.1914 37.8203 69.8047 37.1367 69.5391 36.3555C69.2734 35.5664 69.1406 34.7109 69.1406 33.7891ZM72.5156 33.543V33.7891C72.5156 34.3203 72.5625 34.8164 72.6562 35.2773C72.75 35.7383 72.8984 36.1445 73.1016 36.4961C73.3125 36.8398 73.5859 37.1094 73.9219 37.3047C74.2578 37.5 74.668 37.5977 75.1523 37.5977C75.6211 37.5977 76.0234 37.5 76.3594 37.3047C76.6953 37.1094 76.9648 36.8398 77.168 36.4961C77.3711 36.1445 77.5195 35.7383 77.6133 35.2773C77.7148 34.8164 77.7656 34.3203 77.7656 33.7891V33.543C77.7656 33.0273 77.7148 32.543 77.6133 32.0898C77.5195 31.6289 77.3672 31.2227 77.1562 30.8711C76.9531 30.5117 76.6836 30.2305 76.3477 30.0273C76.0117 29.8242 75.6055 29.7227 75.1289 29.7227C74.6523 29.7227 74.2461 29.8242 73.9102 30.0273C73.582 30.2305 73.3125 30.5117 73.1016 30.8711C72.8984 31.2227 72.75 31.6289 72.6562 32.0898C72.5625 32.543 72.5156 33.0273 72.5156 33.543ZM86.6016 29.9453V40H83.2148V27.3203H86.3906L86.6016 29.9453ZM86.1328 33.2148H85.1953C85.1953 32.332 85.3008 31.5195 85.5117 30.7773C85.7305 30.0273 86.0469 29.3789 86.4609 28.832C86.8828 28.2773 87.4023 27.8477 88.0195 27.543C88.6367 27.2383 89.3516 27.0859 90.1641 27.0859C90.7266 27.0859 91.2422 27.1719 91.7109 27.3438C92.1797 27.5078 92.582 27.7695 92.918 28.1289C93.2617 28.4805 93.5273 28.9414 93.7148 29.5117C93.9023 30.0742 93.9961 30.75 93.9961 31.5391V40H90.6211V31.9141C90.6211 31.3359 90.543 30.8906 90.3867 30.5781C90.2305 30.2656 90.0078 30.0469 89.7188 29.9219C89.4375 29.7969 89.0977 29.7344 88.6992 29.7344C88.2617 29.7344 87.8789 29.8242 87.5508 30.0039C87.2305 30.1836 86.9648 30.4336 86.7539 30.7539C86.543 31.0664 86.3867 31.4336 86.2852 31.8555C86.1836 32.2773 86.1328 32.7305 86.1328 33.2148ZM93.6797 32.8281L92.4727 32.9805C92.4727 32.1523 92.5742 31.3828 92.7773 30.6719C92.9883 29.9609 93.2969 29.3359 93.7031 28.7969C94.1172 28.2578 94.6289 27.8398 95.2383 27.543C95.8477 27.2383 96.5508 27.0859 97.3477 27.0859C97.957 27.0859 98.5117 27.1758 99.0117 27.3555C99.5117 27.5273 99.9375 27.8047 100.289 28.1875C100.648 28.5625 100.922 29.0547 101.109 29.6641C101.305 30.2734 101.402 31.0195 101.402 31.9023V40H98.0156V31.9023C98.0156 31.3164 97.9375 30.8711 97.7812 30.5664C97.6328 30.2539 97.4141 30.0391 97.125 29.9219C96.8438 29.7969 96.5078 29.7344 96.1172 29.7344C95.7109 29.7344 95.3555 29.8164 95.0508 29.9805C94.7461 30.1367 94.4922 30.3555 94.2891 30.6367C94.0859 30.918 93.9336 31.2461 93.832 31.6211C93.7305 31.9883 93.6797 32.3906 93.6797 32.8281ZM109.852 40.2344C108.867 40.2344 107.984 40.0781 107.203 39.7656C106.422 39.4453 105.758 39.0039 105.211 38.4414C104.672 37.8789 104.258 37.2266 103.969 36.4844C103.68 35.7344 103.535 34.9375 103.535 34.0938V33.625C103.535 32.6641 103.672 31.7852 103.945 30.9883C104.219 30.1914 104.609 29.5 105.117 28.9141C105.633 28.3281 106.258 27.8789 106.992 27.5664C107.727 27.2461 108.555 27.0859 109.477 27.0859C110.375 27.0859 111.172 27.2344 111.867 27.5312C112.562 27.8281 113.145 28.25 113.613 28.7969C114.09 29.3438 114.449 30 114.691 30.7656C114.934 31.5234 115.055 32.3672 115.055 33.2969V34.7031H104.977V32.4531H111.738V32.1953C111.738 31.7266 111.652 31.3086 111.48 30.9414C111.316 30.5664 111.066 30.2695 110.73 30.0508C110.395 29.832 109.965 29.7227 109.441 29.7227C108.996 29.7227 108.613 29.8203 108.293 30.0156C107.973 30.2109 107.711 30.4844 107.508 30.8359C107.312 31.1875 107.164 31.6016 107.062 32.0781C106.969 32.5469 106.922 33.0625 106.922 33.625V34.0938C106.922 34.6016 106.992 35.0703 107.133 35.5C107.281 35.9297 107.488 36.3008 107.754 36.6133C108.027 36.9258 108.355 37.168 108.738 37.3398C109.129 37.5117 109.57 37.5977 110.062 37.5977C110.672 37.5977 111.238 37.4805 111.762 37.2461C112.293 37.0039 112.75 36.6406 113.133 36.1562L114.773 37.9375C114.508 38.3203 114.145 38.6875 113.684 39.0391C113.23 39.3906 112.684 39.6797 112.043 39.9062C111.402 40.125 110.672 40.2344 109.852 40.2344ZM120.352 30.0859V40H116.977V27.3203H120.152L120.352 30.0859ZM124.172 27.2383L124.113 30.3672C123.949 30.3438 123.75 30.3242 123.516 30.3086C123.289 30.2852 123.082 30.2734 122.895 30.2734C122.418 30.2734 122.004 30.3359 121.652 30.4609C121.309 30.5781 121.02 30.7539 120.785 30.9883C120.559 31.2227 120.387 31.5078 120.27 31.8438C120.16 32.1797 120.098 32.5625 120.082 32.9922L119.402 32.7812C119.402 31.9609 119.484 31.207 119.648 30.5195C119.812 29.8242 120.051 29.2188 120.363 28.7031C120.684 28.1875 121.074 27.7891 121.535 27.5078C121.996 27.2266 122.523 27.0859 123.117 27.0859C123.305 27.0859 123.496 27.1016 123.691 27.1328C123.887 27.1562 124.047 27.1914 124.172 27.2383ZM129.141 30.0859V40H125.766V27.3203H128.941L129.141 30.0859ZM132.961 27.2383L132.902 30.3672C132.738 30.3438 132.539 30.3242 132.305 30.3086C132.078 30.2852 131.871 30.2734 131.684 30.2734C131.207 30.2734 130.793 30.3359 130.441 30.4609C130.098 30.5781 129.809 30.7539 129.574 30.9883C129.348 31.2227 129.176 31.5078 129.059 31.8438C128.949 32.1797 128.887 32.5625 128.871 32.9922L128.191 32.7812C128.191 31.9609 128.273 31.207 128.438 30.5195C128.602 29.8242 128.84 29.2188 129.152 28.7031C129.473 28.1875 129.863 27.7891 130.324 27.5078C130.785 27.2266 131.312 27.0859 131.906 27.0859C132.094 27.0859 132.285 27.1016 132.48 27.1328C132.676 27.1562 132.836 27.1914 132.961 27.2383Z" fill="white"/>
</svg>
