<svg width="36" height="37" viewBox="0 0 36 37" fill="none" xmlns="http://www.w3.org/2000/svg">
<g clip-path="url(#clip0_64_290)">
<path d="M33.3968 15.0231C32.9922 13.1774 32.2644 11.4513 31.2742 9.90875L32.7364 7.68097L28.7194 3.66388L26.4945 5.12806C24.9521 4.13743 23.2262 3.40927 21.3807 3.00434L20.8405 0.400391H15.1595L14.6227 3.00364C12.7782 3.40794 11.0532 4.13497 9.51138 5.12427L7.28058 3.66395L3.26348 7.68104L4.7257 9.90882C3.73669 11.4495 3.00945 13.1731 2.60466 15.0162L0 15.5599V21.2409L2.60395 21.7811C3.00839 23.6243 3.73514 25.3481 4.7238 26.889L3.26348 29.1198L7.28058 33.1369L9.50836 31.6747C11.049 32.6637 12.7727 33.3909 14.6157 33.7957L15.1595 36.4004H20.8405L21.3808 33.7964C23.2251 33.3917 24.95 32.6642 26.4916 31.6745L28.7194 33.1368L32.7364 29.1197L31.2723 26.8948C32.263 25.3524 32.9911 23.6265 33.396 21.781L36 21.2409V15.5599L33.3968 15.0231ZM18 29.8325C11.6963 29.8325 6.56789 24.704 6.56789 18.4004C6.56789 12.0967 11.6963 6.96828 18 6.96828C24.3037 6.96828 29.4321 12.0967 29.4321 18.4004C29.4321 24.704 24.3037 29.8325 18 29.8325Z" fill="black"/>
<path d="M18 9.07812C12.8594 9.07812 8.67725 13.2603 8.67725 18.4009C8.67725 23.5414 12.8594 27.7236 18 27.7236C23.1405 27.7236 27.3227 23.5414 27.3227 18.4009C27.3227 13.2603 23.1405 9.07812 18 9.07812ZM21.6429 20.6651L20.1513 22.1566L18 20.0052L15.8486 22.1565L14.3571 20.665L16.5084 18.5137L14.3571 16.3624L15.8486 14.8709L18 17.0222L20.1513 14.8709L21.6429 16.3624L19.4915 18.5137L21.6429 20.6651Z" fill="black"/>
</g>
<defs>
<clipPath id="clip0_64_290">
<rect width="36" height="36" fill="white" transform="translate(0 0.400391)"/>
</clipPath>
</defs>
</svg>
