<svg width="73" height="73" viewBox="0 0 73 73" fill="none" xmlns="http://www.w3.org/2000/svg">
<path d="M42.4527 59.3127C43.2519 59.3118 44.042 59.1433 44.7721 58.8182C45.5022 58.493 46.1559 58.0184 46.6912 57.425L54.7897 48.4243C55.4982 47.639 55.8904 46.619 55.8904 45.5613V45.3423C55.8904 44.4796 55.6297 43.637 55.1424 42.925C54.6551 42.213 53.964 41.665 53.1598 41.3527C52.3555 41.0404 51.4757 40.9785 50.6356 41.1751C49.7956 41.3717 49.0345 41.8175 48.4524 42.4543L42.8051 47.2221C42.4978 46.7347 42.0724 46.3327 41.5683 46.0536C41.0642 45.7744 40.4978 45.6271 39.9216 45.6252H32.5863C32.1045 44.9204 31.4578 44.3441 30.7023 43.9464C29.9468 43.5488 29.1056 43.342 28.2519 43.3439C26.3786 43.3389 24.5229 43.7053 22.7922 44.4221C21.0614 45.1389 19.49 46.1917 18.1688 47.5198L12.5466 53.1374L11.0718 51.6625C10.8579 51.4487 10.5678 51.3286 10.2654 51.3286C9.96293 51.3286 9.67286 51.4487 9.45896 51.6625L3.75583 57.3657C3.542 57.5795 3.42188 57.8696 3.42188 58.1721C3.42188 58.4745 3.542 58.7646 3.75583 58.9785L16.3027 71.5254C16.5166 71.7392 16.8067 71.8593 17.1091 71.8593C17.4116 71.8593 17.7017 71.7392 17.9156 71.5254L23.6187 65.8222C23.8325 65.6083 23.9526 65.3183 23.9526 65.0158C23.9526 64.7134 23.8325 64.4233 23.6187 64.2094L22.1439 62.7346L25.5657 59.3127H42.4527ZM17.1091 69.1061L6.1751 58.1721L10.2654 54.0818L21.1994 65.0158L17.1091 69.1061ZM24.2871 57.3657L20.531 61.1217L14.1595 54.7502L19.7759 49.1326C20.8859 48.0171 22.2059 47.1328 23.6598 46.5308C25.1137 45.9287 26.6726 45.6209 28.2462 45.6252C28.8011 45.6229 29.3455 45.7764 29.8176 46.0682C30.2896 46.3599 30.6703 46.7783 30.9164 47.2757C31.0111 47.4653 31.1569 47.6248 31.3372 47.7362C31.5175 47.8476 31.7253 47.9065 31.9373 47.9064H39.9216C40.2241 47.9064 40.5143 48.0266 40.7282 48.2405C40.9421 48.4544 41.0623 48.7446 41.0623 49.0471C41.0623 49.3496 40.9421 49.6397 40.7282 49.8536C40.5143 50.0675 40.2241 50.1877 39.9216 50.1877H31.9373V52.4689H39.9216C40.6902 52.4669 41.4357 52.2062 42.038 51.7289C42.6404 51.2515 43.0645 50.5853 43.242 49.8375L49.9854 44.1424C50.0285 44.1051 50.0693 44.0651 50.1074 44.0226C50.3751 43.716 50.7301 43.4985 51.1249 43.3992C51.5197 43.3 51.9353 43.3237 52.3162 43.4673C52.6972 43.6108 53.0251 43.8673 53.2562 44.2024C53.4872 44.5376 53.6104 44.9353 53.6091 45.3423V45.5613C53.6095 46.0551 53.4266 46.5315 53.0958 46.8981L44.9974 55.8988C44.6761 56.2549 44.2838 56.5397 43.8457 56.7348C43.4076 56.9298 42.9334 57.0309 42.4538 57.0314H25.0935C24.791 57.0315 24.5009 57.1517 24.2871 57.3657Z" fill="black"/>
<path d="M36.5 1.14062C32.4393 1.14063 28.4698 2.34476 25.0935 4.60076C21.7171 6.85677 19.0856 10.0633 17.5316 13.8149C15.9776 17.5665 15.5711 21.6947 16.3633 25.6773C17.1555 29.66 19.1109 33.3183 21.9822 36.1897C24.8536 39.061 28.5119 41.0164 32.4946 41.8086C36.4772 42.6008 40.6054 42.1942 44.357 40.6403C48.1086 39.0863 51.3151 36.4548 53.5711 33.0784C55.8271 29.7021 57.0313 25.7326 57.0313 21.6719C57.0249 16.2286 54.8598 11.0101 51.0108 7.16109C47.1618 3.31211 41.9433 1.14696 36.5 1.14062ZM26.2344 36.7487V35.3594C26.2344 34.7543 26.4747 34.1741 26.9025 33.7463C27.3304 33.3185 27.9106 33.0781 28.5156 33.0781H32.0995C32.3484 34.0563 32.9162 34.9237 33.7131 35.5431C34.51 36.1626 35.4906 36.4989 36.5 36.4989C37.5094 36.4989 38.49 36.1626 39.2869 35.5431C40.0838 34.9237 40.6516 34.0563 40.9005 33.0781H44.4844C45.0894 33.0781 45.6697 33.3185 46.0975 33.7463C46.5253 34.1741 46.7656 34.7543 46.7656 35.3594V36.7487C43.7413 38.8159 40.1633 39.9218 36.5 39.9218C32.8367 39.9218 29.2587 38.8159 26.2344 36.7487ZM28.5156 22.8125H27.375C27.0725 22.8125 26.7824 22.6923 26.5685 22.4784C26.3546 22.2645 26.2344 21.9744 26.2344 21.6719C26.2344 21.3694 26.3546 21.0792 26.5685 20.8653C26.7824 20.6514 27.0725 20.5312 27.375 20.5312H28.5156V22.8125ZM29.4943 17.1208C29.3749 17.1404 29.2594 17.1789 29.1521 17.2348L28.9628 16.4797C28.6654 15.2894 28.5153 14.067 28.5156 12.84C28.5157 12.0131 28.649 11.1916 28.9103 10.4071C29.0114 10.104 29.1883 9.83187 29.4241 9.61637C29.6599 9.40088 29.9469 9.24921 30.2578 9.17574C30.5687 9.10227 30.8932 9.10945 31.2005 9.19659C31.5079 9.28372 31.7879 9.44793 32.0139 9.67364L33.4123 11.072C33.6262 11.2859 33.9163 11.406 34.2188 11.406C34.5212 11.406 34.8113 11.2859 35.0252 11.072L35.4164 10.6808C36.1593 9.93793 37.1058 9.43202 38.1362 9.22706C39.1666 9.0221 40.2346 9.12729 41.2053 9.52934C42.1759 9.93138 43.0055 10.6122 43.5892 11.4858C44.1728 12.3593 44.4844 13.3863 44.4844 14.4369V15.784L43.9791 17.2987L38.3535 12.7967C38.1857 12.6623 37.9834 12.5781 37.7699 12.5538C37.5563 12.5294 37.3403 12.5659 37.1465 12.659C36.9528 12.7521 36.7893 12.8981 36.675 13.08C36.5606 13.262 36.4999 13.4726 36.5 13.6875C36.4969 14.3618 36.2523 15.0128 35.8106 15.5223C35.3689 16.0318 34.7592 16.3662 34.0921 16.4649L29.4943 17.1208ZM44.4844 20.5312H45.625C45.9275 20.5312 46.2176 20.6514 46.4316 20.8653C46.6455 21.0792 46.7656 21.3694 46.7656 21.6719C46.7656 21.9744 46.6455 22.2645 46.4316 22.4784C46.2176 22.6923 45.9275 22.8125 45.625 22.8125H44.4844V20.5312ZM30.7969 19.2389L34.4149 18.7222C35.2723 18.5963 36.0835 18.2545 36.7724 17.7289C37.4614 17.2034 38.0054 16.5113 38.3535 15.7178L42.2031 18.7975V22.8125C42.2031 24.3251 41.6023 25.7757 40.5327 26.8452C39.4632 27.9148 38.0126 28.5156 36.5 28.5156C34.9874 28.5156 33.5368 27.9148 32.4673 26.8452C31.3977 25.7757 30.7969 24.3251 30.7969 22.8125V19.2389ZM36.5 30.7969C37.273 30.7946 38.0416 30.6793 38.7813 30.4547V31.9375C38.7813 32.5425 38.5409 33.1228 38.1131 33.5506C37.6853 33.9784 37.105 34.2188 36.5 34.2188C35.895 34.2188 35.3147 33.9784 34.8869 33.5506C34.4591 33.1228 34.2188 32.5425 34.2188 31.9375V30.4547C34.9584 30.6793 35.727 30.7946 36.5 30.7969ZM49.0035 34.9294C48.8991 33.8019 48.3783 32.7538 47.5427 31.9897C46.7071 31.2255 45.6167 30.8003 44.4844 30.7969H41.0625V29.3551C42.5418 28.323 43.6291 26.8213 44.1479 25.0938H45.625C46.4956 25.0976 47.3347 24.7685 47.9707 24.1739C48.6066 23.5793 48.9913 22.7642 49.0459 21.8953C49.1006 21.0264 48.8211 20.1694 48.2647 19.4999C47.7083 18.8303 46.917 18.3987 46.0527 18.2933L46.7075 16.3292C46.7461 16.2129 46.7657 16.0912 46.7656 15.9688V14.4369C46.7656 12.9852 46.3494 11.5639 45.5663 10.3414C44.7833 9.11902 43.6662 8.14668 42.3475 7.53966C41.0288 6.93263 39.5637 6.71637 38.1258 6.91648C36.6879 7.11659 35.3376 7.7247 34.2347 8.66875L33.6268 8.0608C33.1259 7.55997 32.5054 7.19547 31.824 7.00193C31.1427 6.80838 30.4232 6.79221 29.7339 6.95495C29.0445 7.11768 28.4082 7.45393 27.8854 7.93175C27.3625 8.40957 26.9705 9.0131 26.7465 9.68505C26.407 10.7023 26.2341 11.7676 26.2344 12.84C26.2344 14.2539 26.4079 15.6625 26.7511 17.0341L27.0625 18.2819C26.1867 18.3606 25.3751 18.7742 24.7968 19.4366C24.2186 20.099 23.9183 20.9591 23.9586 21.8374C23.9989 22.7158 24.3766 23.5447 25.0131 24.1514C25.6496 24.758 26.4957 25.0956 27.375 25.0938H28.8578C29.3751 26.8205 30.4603 28.3221 31.9375 29.3551V30.7969H28.5156C27.3833 30.8003 26.2929 31.2255 25.4573 31.9897C24.6217 32.7538 24.1009 33.8019 23.9965 34.9294C21.3325 32.4238 19.4828 29.1756 18.6872 25.6061C17.8915 22.0366 18.1866 18.3104 19.5343 14.9106C20.8819 11.5108 23.2198 8.59435 26.245 6.53934C29.2701 4.48433 32.8429 3.38559 36.5 3.38559C40.1571 3.38559 43.7299 4.48433 46.755 6.53934C49.7802 8.59435 52.1181 11.5108 53.4658 14.9106C54.8134 18.3104 55.1085 22.0366 54.3129 25.6061C53.5172 29.1756 51.6675 32.4238 49.0035 34.9294Z" fill="black"/>
<path d="M71.5249 8.31833L64.6812 1.47458C64.4673 1.26075 64.1772 1.14062 63.8748 1.14062C63.5723 1.14062 63.2822 1.26075 63.0683 1.47458L56.2246 8.31833C56.0651 8.47785 55.9565 8.68107 55.9125 8.9023C55.8685 9.12353 55.8911 9.35283 55.9774 9.56122C56.0637 9.76961 56.2099 9.94774 56.3974 10.0731C56.585 10.1984 56.8054 10.2653 57.031 10.2654H59.3123V18.2498C59.3123 18.5523 59.4324 18.8424 59.6463 19.0563C59.8602 19.2702 60.1504 19.3904 60.4529 19.3904H67.2966C67.5991 19.3904 67.8893 19.2702 68.1032 19.0563C68.3171 18.8424 68.4373 18.5523 68.4373 18.2498V10.2654H70.7185C70.9441 10.2653 71.1645 10.1984 71.3521 10.0731C71.5396 9.94774 71.6858 9.76961 71.7721 9.56122C71.8584 9.35283 71.881 9.12353 71.837 8.9023C71.793 8.68107 71.6844 8.47785 71.5249 8.31833ZM67.2966 7.98413C66.9941 7.98413 66.704 8.1043 66.4901 8.31821C66.2762 8.53212 66.156 8.82224 66.156 9.12476V17.1091H61.5935V9.12476C61.5935 8.82224 61.4733 8.53212 61.2594 8.31821C61.0455 8.1043 60.7554 7.98413 60.4529 7.98413H59.7845L63.8748 3.89385L67.965 7.98413H67.2966Z" fill="black"/>
<path d="M9.93118 1.47458C9.71728 1.26075 9.42721 1.14062 9.12476 1.14062C8.8223 1.14062 8.53223 1.26075 8.31834 1.47458L1.47459 8.31833C1.31511 8.47785 1.20652 8.68107 1.16253 8.9023C1.11854 9.12353 1.14113 9.35283 1.22744 9.56122C1.31375 9.76961 1.45991 9.94774 1.64744 10.0731C1.83497 10.1984 2.05545 10.2653 2.28101 10.2654H4.56226V18.2498C4.56226 18.5523 4.68243 18.8424 4.89634 19.0563C5.11025 19.2702 5.40037 19.3904 5.70288 19.3904H12.5466C12.8491 19.3904 13.1393 19.2702 13.3532 19.0563C13.5671 18.8424 13.6873 18.5523 13.6873 18.2498V10.2654H15.9685C16.1941 10.2653 16.4145 10.1984 16.6021 10.0731C16.7896 9.94774 16.9358 9.76961 17.0221 9.56122C17.1084 9.35283 17.131 9.12353 17.087 8.9023C17.043 8.68107 16.9344 8.47785 16.7749 8.31833L9.93118 1.47458ZM12.5466 7.98413C12.2441 7.98413 11.954 8.1043 11.7401 8.31821C11.5262 8.53212 11.406 8.82224 11.406 9.12476V17.1091H6.84351V9.12476C6.84351 8.82224 6.72333 8.53212 6.50943 8.31821C6.29552 8.1043 6.00539 7.98413 5.70288 7.98413H5.03448L9.12476 3.89385L13.215 7.98413H12.5466Z" fill="black"/>
<path d="M1.22744 34.6554C1.31384 34.8637 1.46008 35.0418 1.64768 35.1671C1.83528 35.2924 2.05581 35.3592 2.28138 35.3591H4.56263V43.3435C4.56263 43.646 4.68281 43.9361 4.89671 44.1501C5.11062 44.364 5.40074 44.4841 5.70326 44.4841H12.547C12.8495 44.4841 13.1396 44.364 13.3535 44.1501C13.5675 43.9361 13.6876 43.646 13.6876 43.3435V35.3591H15.9689C16.1944 35.3591 16.4149 35.2922 16.6025 35.1668C16.79 35.0415 16.9361 34.8634 17.0225 34.655C17.1088 34.4466 17.1314 34.2173 17.0874 33.996C17.0434 33.7748 16.9348 33.5716 16.7753 33.4121L9.93155 26.5683C9.71766 26.3545 9.42758 26.2344 9.12513 26.2344C8.82268 26.2344 8.53261 26.3545 8.31871 26.5683L1.47496 33.4121C1.31535 33.5716 1.20664 33.7749 1.16258 33.9962C1.11852 34.2175 1.14109 34.4469 1.22744 34.6554ZM9.12513 28.9876L13.2154 33.0779H12.547C12.2445 33.0779 11.9544 33.1981 11.7405 33.412C11.5266 33.6259 11.4064 33.916 11.4064 34.2185V42.2029H6.84388V34.2185C6.84388 33.916 6.72371 33.6259 6.5098 33.412C6.29589 33.1981 6.00577 33.0779 5.70326 33.0779H5.03485L9.12513 28.9876Z" fill="black"/>
<path d="M60.4529 44.4841H67.2966C67.5991 44.4841 67.8893 44.364 68.1032 44.1501C68.3171 43.9361 68.4373 43.646 68.4373 43.3435V35.3591H70.7185C70.9441 35.3591 71.1645 35.2922 71.3521 35.1668C71.5396 35.0415 71.6858 34.8634 71.7721 34.655C71.8584 34.4466 71.881 34.2173 71.837 33.996C71.793 33.7748 71.6844 33.5716 71.5249 33.4121L64.6812 26.5683C64.4673 26.3545 64.1772 26.2344 63.8748 26.2344C63.5723 26.2344 63.2822 26.3545 63.0683 26.5683L56.2246 33.4121C56.0651 33.5716 55.9565 33.7748 55.9125 33.996C55.8685 34.2173 55.8911 34.4466 55.9774 34.655C56.0637 34.8634 56.2099 35.0415 56.3974 35.1668C56.585 35.2922 56.8054 35.3591 57.031 35.3591H59.3123V43.3435C59.3123 43.646 59.4324 43.9361 59.6463 44.1501C59.8602 44.364 60.1504 44.4841 60.4529 44.4841ZM63.8748 28.9876L67.965 33.0779H67.2966C66.9941 33.0779 66.704 33.1981 66.4901 33.412C66.2762 33.6259 66.156 33.916 66.156 34.2185V42.2029H61.5935V34.2185C61.5935 33.916 61.4733 33.6259 61.2594 33.412C61.0455 33.1981 60.7554 33.0779 60.4529 33.0779H59.7845L63.8748 28.9876Z" fill="black"/>
</svg>
