<svg width="36" height="37" viewBox="0 0 36 37" fill="none" xmlns="http://www.w3.org/2000/svg">
<path d="M32.2499 27.5L22.2857 18.5M13.7143 18.5L3.75005 27.5M3 11L15.2474 19.5732C16.2391 20.2674 16.735 20.6145 17.2744 20.749C17.7508 20.8677 18.2492 20.8677 18.7256 20.749C19.265 20.6145 19.7609 20.2674 20.7526 19.5732L33 11M10.2 30.5H25.8C28.3202 30.5 29.5804 30.5 30.543 30.0095C31.3897 29.5781 32.0781 28.8897 32.5095 28.043C33 27.0804 33 25.8202 33 23.3V13.7C33 11.1798 33 9.91965 32.5095 8.95704C32.0781 8.11031 31.3897 7.4219 30.543 6.99047C29.5804 6.5 28.3202 6.5 25.8 6.5H10.2C7.67976 6.5 6.41965 6.5 5.45704 6.99047C4.61031 7.4219 3.9219 8.11031 3.49047 8.95704C3 9.91965 3 11.1798 3 13.7V23.3C3 25.8202 3 27.0804 3.49047 28.043C3.9219 28.8897 4.61031 29.5781 5.45704 30.0095C6.41965 30.5 7.67976 30.5 10.2 30.5Z" stroke="black" stroke-width="2" stroke-linecap="round" stroke-linejoin="round"/>
</svg>
