<svg width="36" height="37" viewBox="0 0 36 37" fill="none" xmlns="http://www.w3.org/2000/svg">
<g clip-path="url(#clip0_64_264)">
<path d="M2.61446 8.51568H3.53568C3.89072 8.51568 4.17853 8.80349 4.17853 9.15853V36.1585C4.17853 36.5136 4.46635 36.8014 4.82139 36.8014H9.96425C10.3193 36.8014 10.6071 36.5136 10.6071 36.1585V9.15853C10.6071 8.80349 10.8949 8.51568 11.25 8.51568H12.1718C12.4273 8.51564 12.6584 8.36438 12.7608 8.13032C12.8631 7.89627 12.8171 7.62385 12.6437 7.43632L7.8621 2.26325C7.74042 2.13154 7.56925 2.05664 7.38993 2.05664C7.21061 2.05664 7.03943 2.13154 6.91775 2.26325L2.1426 7.43632C1.96916 7.62385 1.9232 7.89627 2.02552 8.13032C2.12784 8.36438 2.35902 8.51564 2.61446 8.51568ZM6.74996 31.6585C6.74996 32.0136 6.46214 32.3014 6.1071 32.3014C5.75206 32.3014 5.46425 32.0136 5.46425 31.6585V21.3728C5.46425 21.0178 5.75206 20.73 6.1071 20.73C6.46214 20.73 6.74996 21.0178 6.74996 21.3728V31.6585ZM8.03568 25.23C8.03568 24.8749 8.32349 24.5871 8.67853 24.5871C9.03357 24.5871 9.32139 24.8749 9.32139 25.23V34.8728C9.32139 35.2279 9.03357 35.5157 8.67853 35.5157C8.32349 35.5157 8.03568 35.2279 8.03568 34.8728V25.23Z" fill="black"/>
<path d="M28.7465 7.87193C29.2791 7.87193 29.7108 7.44021 29.7108 6.90765C29.7108 6.37508 29.2791 5.94336 28.7465 5.94336C28.214 5.94336 27.7822 6.37508 27.7822 6.90765C27.7822 7.44021 28.214 7.87193 28.7465 7.87193Z" fill="black"/>
<path d="M25.8538 29.7284C24.7811 29.7233 23.7211 29.4945 22.7418 29.0566C21.4144 30.3278 20.9934 32.2783 21.6783 33.9837C22.3632 35.6891 24.0163 36.8067 25.8542 36.8067C27.692 36.8067 29.3451 35.6891 30.03 33.9837C30.7149 32.2783 30.2939 30.3278 28.9665 29.0566C27.9869 29.4945 26.9268 29.7233 25.8538 29.7284ZM22.7077 30.7268C22.7839 30.5741 22.9176 30.458 23.0794 30.404C23.2412 30.35 23.4178 30.3625 23.5704 30.4388L24.8561 31.0816C25.1739 31.2405 25.3027 31.6269 25.1438 31.9447C24.9849 32.2624 24.5985 32.3912 24.2808 32.2324L22.9951 31.5895C22.8425 31.5132 22.7265 31.3795 22.6726 31.2177C22.6188 31.0559 22.6314 30.8793 22.7077 30.7268ZM27.1396 35.5141C26.787 35.5142 26.5002 35.2302 26.4967 34.8777C26.4967 34.5227 26.2089 34.2349 25.8538 34.2349C25.4988 34.2349 25.211 34.5227 25.211 34.8777C25.2043 35.228 24.9184 35.5084 24.5681 35.5084H24.5604C24.2098 35.5062 23.9263 35.2219 23.9253 34.8713C23.9253 33.8062 24.7887 32.9427 25.8538 32.9427C26.919 32.9427 27.7824 33.8062 27.7824 34.8713C27.7824 35.0418 27.7147 35.2053 27.5941 35.3259C27.4736 35.4464 27.31 35.5141 27.1396 35.5141ZM28.7133 31.5927L27.4276 32.2356C27.338 32.2787 27.2396 32.3007 27.1402 32.2999C26.8391 32.3035 26.5757 32.0977 26.5066 31.8046C26.4375 31.5115 26.5811 31.2096 26.8522 31.0784L28.1379 30.4356C28.4557 30.2767 28.8421 30.4055 29.0009 30.7232C29.1598 31.041 29.031 31.4274 28.7133 31.5863V31.5927Z" fill="black"/>
<path d="M23.2823 22.0142C23.6373 22.0142 23.9251 21.7264 23.9251 21.3714C23.9251 21.0163 23.6373 20.7285 23.2823 20.7285C22.9272 20.7285 22.6394 21.0163 22.6394 21.3714C22.6394 21.7264 22.9272 22.0142 23.2823 22.0142Z" fill="black"/>
<path d="M22.9609 7.87193C23.4934 7.87193 23.9252 7.44021 23.9252 6.90765C23.9252 6.37508 23.4934 5.94336 22.9609 5.94336C22.4283 5.94336 21.9966 6.37508 21.9966 6.90765C21.9966 7.44021 22.4283 7.87193 22.9609 7.87193Z" fill="black"/>
<path d="M25.8537 17.5151C30.4692 17.5151 34.2109 13.7734 34.2109 9.15792C34.2109 4.5424 30.4692 0.800781 25.8537 0.800781C21.2382 0.800781 17.4966 4.5424 17.4966 9.15792C17.5015 13.7714 21.2403 17.5101 25.8537 17.5151ZM28.7466 4.65792C29.9892 4.65792 30.9966 5.66528 30.9966 6.90792C30.9966 8.15057 29.9892 9.15792 28.7466 9.15792C27.5039 9.15792 26.4966 8.15057 26.4966 6.90792C26.4966 5.66528 27.5039 4.65792 28.7466 4.65792ZM29.9076 10.6236C30.0729 10.4642 30.3108 10.4052 30.5315 10.4687C30.7522 10.5322 30.9223 10.7086 30.9776 10.9316C31.033 11.1545 30.9652 11.39 30.7999 11.5494C29.5071 12.8964 27.7208 13.6579 25.8537 13.6579C23.9867 13.6579 22.2004 12.8964 20.9076 11.5494C20.7422 11.39 20.6745 11.1545 20.7298 10.9316C20.7852 10.7086 20.9552 10.5322 21.176 10.4687C21.3967 10.4052 21.6345 10.4642 21.7999 10.6236C22.8529 11.7396 24.3194 12.3722 25.8537 12.3722C27.3881 12.3722 28.8546 11.7396 29.9076 10.6236ZM22.9609 4.65792C24.2035 4.65792 25.2109 5.66528 25.2109 6.90792C25.2109 8.15057 24.2035 9.15792 22.9609 9.15792C21.7182 9.15792 20.7109 8.15057 20.7109 6.90792C20.7109 5.66528 21.7182 4.65792 22.9609 4.65792Z" fill="black"/>
<path d="M25.8538 18.8011C24.2238 18.8019 22.6206 18.387 21.1956 17.5957C18.7779 20.1381 18.8451 24.1494 21.3467 26.6093C23.8482 29.0693 27.86 29.0693 30.3616 26.6093C32.8631 24.1494 32.9303 20.1381 30.5126 17.5957C29.0874 18.3871 27.484 18.802 25.8538 18.8011ZM21.3538 21.3725C21.3538 20.3074 22.2172 19.4439 23.2824 19.4439C24.3475 19.4439 25.2109 20.3074 25.2109 21.3725C25.2109 22.4376 24.3475 23.3011 23.2824 23.3011C22.2172 23.3011 21.3538 22.4376 21.3538 21.3725ZM27.7824 25.8725H23.9252C23.5702 25.8725 23.2824 25.5847 23.2824 25.2296C23.2824 24.8746 23.5702 24.5868 23.9252 24.5868H27.7824C28.1374 24.5868 28.4252 24.8746 28.4252 25.2296C28.4252 25.5847 28.1374 25.8725 27.7824 25.8725ZM28.4252 23.3011C27.3601 23.3011 26.4966 22.4376 26.4966 21.3725C26.4966 20.3074 27.3601 19.4439 28.4252 19.4439C29.4903 19.4439 30.3538 20.3074 30.3538 21.3725C30.3538 22.4376 29.4903 23.3011 28.4252 23.3011Z" fill="black"/>
<path d="M28.4251 22.0142C28.7801 22.0142 29.0679 21.7264 29.0679 21.3714C29.0679 21.0163 28.7801 20.7285 28.4251 20.7285C28.07 20.7285 27.7822 21.0163 27.7822 21.3714C27.7822 21.7264 28.07 22.0142 28.4251 22.0142Z" fill="black"/>
</g>
<defs>
<clipPath id="clip0_64_264">
<rect width="36" height="36" fill="white" transform="translate(0 0.800781)"/>
</clipPath>
</defs>
</svg>
