<svg width="36" height="36" viewBox="0 0 36 36" fill="none" xmlns="http://www.w3.org/2000/svg">
<path d="M11.2894 11.9362C11.2507 12.0742 11.2402 12.2185 11.2585 12.3606C11.2769 12.5027 11.3238 12.6396 11.3963 12.7631L11.9251 13.68C11.9963 13.8044 12.0918 13.9133 12.2058 14.0002C12.3198 14.0871 12.45 14.1504 12.5888 14.1862C12.7258 14.2252 12.8692 14.2358 13.0104 14.2174C13.1516 14.199 13.2876 14.1521 13.4101 14.0794L13.9726 13.7587C14.6523 14.4091 15.4778 14.8874 16.3801 15.1538V15.795C16.38 16.0835 16.4942 16.3602 16.6976 16.5647C16.9011 16.7692 17.1772 16.8848 17.4657 16.8863H18.5232C18.8125 16.886 19.0899 16.7709 19.2945 16.5663C19.4991 16.3617 19.6142 16.0843 19.6144 15.795V15.1538C20.5173 14.8917 21.3433 14.415 22.0219 13.7644L22.5844 14.085C22.8346 14.2278 23.131 14.266 23.4092 14.1912C23.6874 14.1164 23.9247 13.9347 24.0694 13.6856L24.5982 12.7744C24.7413 12.5234 24.7797 12.2261 24.7049 11.947C24.6301 11.6679 24.4483 11.4295 24.1988 11.2837L23.6419 10.9631C23.7544 10.5067 23.8111 10.0382 23.8107 9.56813C23.8102 9.10025 23.7554 8.63402 23.6476 8.17875L24.2044 7.85813C24.3288 7.78685 24.4377 7.69141 24.5246 7.57741C24.6116 7.46342 24.6748 7.33319 24.7107 7.19438C24.7494 7.05739 24.7599 6.91395 24.7416 6.77278C24.7232 6.6316 24.6763 6.49563 24.6038 6.37313L24.0751 5.45625C24.0038 5.33245 23.9089 5.2239 23.7957 5.13682C23.6825 5.04973 23.5533 4.98581 23.4153 4.94872C23.2774 4.91163 23.1335 4.90209 22.9919 4.92065C22.8503 4.9392 22.7138 4.9855 22.5901 5.05687L22.0276 5.3775C21.3493 4.72521 20.5233 4.24661 19.6201 3.9825V3.33562C19.6189 3.04805 19.5042 2.77257 19.3008 2.56922C19.0975 2.36587 18.822 2.25113 18.5344 2.25H17.4769C17.1885 2.24996 16.9117 2.36414 16.7072 2.56759C16.5027 2.77103 16.3871 3.04717 16.3857 3.33562V3.9825C15.4828 4.24456 14.6568 4.72126 13.9782 5.37188L13.4157 5.05125C13.1663 4.90749 12.8702 4.86821 12.592 4.94198C12.3138 5.01575 12.0761 5.19658 11.9307 5.445L11.4019 6.36188C11.2588 6.61286 11.2204 6.91019 11.2952 7.18928C11.37 7.46838 11.5518 7.70671 11.8013 7.8525L12.3582 8.17312C12.2454 8.62953 12.1887 9.09799 12.1894 9.56813C12.1903 10.036 12.245 10.5022 12.3526 10.9575L11.7957 11.2781C11.6715 11.3483 11.5626 11.4427 11.4757 11.5558C11.3887 11.6688 11.3254 11.7982 11.2894 11.9362ZM18.0001 6.42938C18.6208 6.42938 19.2277 6.61346 19.7439 6.95835C20.26 7.30324 20.6623 7.79345 20.8999 8.36698C21.1374 8.94051 21.1996 9.57161 21.0785 10.1805C20.9574 10.7893 20.6585 11.3486 20.2195 11.7876C19.7805 12.2265 19.2213 12.5255 18.6124 12.6466C18.0035 12.7677 17.3724 12.7055 16.7989 12.468C16.2254 12.2304 15.7352 11.8281 15.3903 11.3119C15.0454 10.7958 14.8613 10.1889 14.8613 9.56813C14.8616 8.73578 15.1924 7.93762 15.781 7.34906C16.3696 6.76051 17.1677 6.42971 18.0001 6.42938Z" fill="black"/>
<path d="M18.0001 11.5822C18.3984 11.5822 18.7877 11.4641 19.1189 11.2428C19.45 11.0215 19.7081 10.707 19.8605 10.3391C20.013 9.9711 20.0528 9.5662 19.9751 9.17558C19.8974 8.78495 19.7056 8.42613 19.424 8.1445C19.1424 7.86287 18.7836 7.67108 18.3929 7.59338C18.0023 7.51568 17.5974 7.55556 17.2295 7.70798C16.8615 7.86039 16.547 8.1185 16.3257 8.44966C16.1044 8.78082 15.9863 9.17016 15.9863 9.56844C15.9861 9.83296 16.038 10.0949 16.1391 10.3394C16.2402 10.5838 16.3885 10.8059 16.5755 10.993C16.7626 11.18 16.9847 11.3283 17.2291 11.4294C17.4736 11.5305 17.7356 11.5825 18.0001 11.5822Z" fill="black"/>
<path d="M27.5625 20.25C26.3387 20.25 25.1424 20.6129 24.1249 21.2928C23.1074 21.9727 22.3143 22.939 21.846 24.0696C21.3777 25.2003 21.2551 26.4444 21.4939 27.6446C21.7326 28.8449 22.3219 29.9474 23.1873 30.8127C24.0526 31.6781 25.1551 32.2674 26.3554 32.5061C27.5556 32.7449 28.7997 32.6223 29.9304 32.154C31.061 31.6857 32.0273 30.8926 32.7072 29.8751C33.3871 28.8576 33.75 27.6613 33.75 26.4375C33.749 24.7968 33.0968 23.2235 31.9366 22.0634C30.7765 20.9032 29.2032 20.251 27.5625 20.25ZM29.6663 27H27.5625C27.4135 26.9996 27.2706 26.9401 27.1652 26.8348C27.0599 26.7294 27.0004 26.5865 27 26.4375V22.9106C27 22.7614 27.0593 22.6184 27.1648 22.5129C27.2702 22.4074 27.4133 22.3481 27.5625 22.3481C27.7117 22.3481 27.8548 22.4074 27.9603 22.5129C28.0657 22.6184 28.125 22.7614 28.125 22.9106V25.875H29.6663C29.8154 25.875 29.9585 25.9343 30.064 26.0398C30.1695 26.1452 30.2288 26.2883 30.2288 26.4375C30.2288 26.5867 30.1695 26.7298 30.064 26.8352C29.9585 26.9407 29.8154 27 29.6663 27Z" fill="black"/>
<path d="M8.4375 20.25C7.21373 20.25 6.01744 20.6129 4.99991 21.2928C3.98238 21.9727 3.18932 22.939 2.721 24.0696C2.25268 25.2003 2.13015 26.4444 2.36889 27.6446C2.60764 28.8449 3.19694 29.9474 4.06228 30.8127C4.92762 31.6781 6.03012 32.2674 7.23038 32.5061C8.43064 32.7449 9.67474 32.6223 10.8054 32.154C11.936 31.6857 12.9023 30.8926 13.5822 29.8751C14.2621 28.8576 14.625 27.6613 14.625 26.4375C14.624 24.7968 13.9718 23.2235 12.8116 22.0634C11.6515 20.9032 10.0782 20.251 8.4375 20.25ZM10.5525 28.3444C10.4536 28.6996 10.2547 29.0189 9.97942 29.2642C9.70417 29.5095 9.3642 29.6706 9 29.7281V30.015C9 30.1642 8.94074 30.3073 8.83525 30.4127C8.72976 30.5182 8.58669 30.5775 8.4375 30.5775C8.28832 30.5775 8.14524 30.5182 8.03976 30.4127C7.93427 30.3073 7.875 30.1642 7.875 30.015V29.745C7.45091 29.6881 7.06029 29.484 6.77138 29.1683C6.48248 28.8527 6.31364 28.4456 6.29438 28.0181C6.29412 27.9442 6.30849 27.8709 6.33667 27.8026C6.36485 27.7342 6.40627 27.6721 6.45856 27.6198C6.51084 27.5675 6.57295 27.5261 6.64131 27.4979C6.70968 27.4697 6.78294 27.4554 6.85688 27.4556C7.00476 27.4567 7.14637 27.5155 7.25147 27.6196C7.35657 27.7236 7.41682 27.8646 7.41938 28.0125C7.42678 28.1428 7.47465 28.2676 7.55632 28.3694C7.63799 28.4713 7.74939 28.5451 7.875 28.5806V26.7975C6.2325 25.9706 6.23813 24.9525 6.3225 24.5306C6.4214 24.1754 6.62033 23.8561 6.89558 23.6108C7.17083 23.3655 7.51081 23.2044 7.875 23.1469V22.86C7.875 22.7108 7.93427 22.5677 8.03976 22.4623C8.14524 22.3568 8.28832 22.2975 8.4375 22.2975C8.58669 22.2975 8.72976 22.3568 8.83525 22.4623C8.94074 22.5677 9 22.7108 9 22.86V23.13C9.4241 23.1869 9.81472 23.391 10.1036 23.7067C10.3925 24.0223 10.5614 24.4294 10.5806 24.8569C10.5806 25.0061 10.5214 25.1491 10.4159 25.2546C10.3104 25.3601 10.1673 25.4194 10.0181 25.4194C9.86894 25.4194 9.72587 25.3601 9.62038 25.2546C9.51489 25.1491 9.45563 25.0061 9.45563 24.8569C9.44716 24.7275 9.3988 24.604 9.3172 24.5032C9.2356 24.4025 9.12478 24.3295 9 24.2944V26.0775C10.6425 26.9044 10.6369 27.9225 10.5525 28.3444Z" fill="black"/>
<path d="M7.42496 24.7556C7.38559 24.9356 7.50934 25.2 7.87496 25.4812V24.3281C7.77235 24.3604 7.67846 24.4157 7.60048 24.4898C7.52249 24.5639 7.46246 24.6548 7.42496 24.7556Z" fill="black"/>
<path d="M9 27.3945V28.5477C9.10261 28.5154 9.19649 28.4601 9.27448 28.386C9.35247 28.3119 9.4125 28.221 9.45 28.1202C9.48937 27.9402 9.36562 27.6758 9 27.3945Z" fill="black"/>
<path d="M25.4317 5.40645C28.0051 6.9232 30.0519 9.19215 31.2964 11.9077C32.5409 14.6233 32.9233 17.655 32.3921 20.5945C32.3789 20.6672 32.3802 20.7418 32.3959 20.8139C32.4115 20.8861 32.4413 20.9545 32.4834 21.0152C32.5255 21.0759 32.5791 21.1277 32.6413 21.1676C32.7034 21.2075 32.7728 21.2348 32.8455 21.2479C32.8787 21.254 32.9123 21.2571 32.946 21.257C33.0778 21.2568 33.2053 21.2104 33.3063 21.1259C33.4073 21.0414 33.4755 20.9241 33.4989 20.7945C34.0713 17.6288 33.6596 14.3637 32.3195 11.4391C30.9793 8.5145 28.775 6.0709 26.0035 4.43745C25.9399 4.3999 25.8695 4.37526 25.7964 4.36491C25.7232 4.35457 25.6487 4.35874 25.5772 4.37718C25.5056 4.39562 25.4384 4.42797 25.3794 4.47238C25.3204 4.5168 25.2707 4.5724 25.2331 4.63603C25.1956 4.69965 25.1709 4.77005 25.1606 4.8432C25.1502 4.91635 25.1544 4.99082 25.1728 5.06236C25.1913 5.1339 25.2236 5.20111 25.268 5.26015C25.3125 5.31919 25.3681 5.3689 25.4317 5.40645Z" fill="black"/>
<path d="M3.05394 21.2565C3.08765 21.2566 3.12131 21.2536 3.15446 21.2475C3.22716 21.2344 3.29656 21.2071 3.35869 21.1671C3.42083 21.1272 3.47449 21.0754 3.51661 21.0147C3.55872 20.954 3.58846 20.8857 3.60413 20.8135C3.6198 20.7413 3.62109 20.6667 3.60792 20.594C3.07804 17.6614 3.45724 14.6369 4.6947 11.9258C5.93217 9.2148 7.96876 6.94678 10.5315 5.4258C10.6001 5.39298 10.6614 5.34662 10.7117 5.28949C10.7619 5.23236 10.8001 5.16565 10.8239 5.09339C10.8476 5.02112 10.8565 4.94479 10.85 4.86899C10.8435 4.79319 10.8217 4.71949 10.786 4.65234C10.7502 4.58518 10.7013 4.52596 10.642 4.47823C10.5828 4.43051 10.5145 4.39527 10.4412 4.37464C10.368 4.35401 10.2914 4.34841 10.2159 4.35819C10.1405 4.36797 10.0678 4.39292 10.0022 4.43154C7.22902 6.06485 5.02314 8.50904 3.6819 11.4347C2.34066 14.3604 1.92853 17.6269 2.50105 20.794C2.52448 20.9236 2.59265 21.0409 2.69369 21.1255C2.79472 21.21 2.92221 21.2564 3.05394 21.2565Z" fill="black"/>
<path d="M22.3727 31.9646C19.5235 32.8419 16.4763 32.8419 13.6271 31.9646C13.4846 31.9205 13.3304 31.9348 13.1984 32.0043C13.0665 32.0738 12.9675 32.193 12.9234 32.3354C12.8792 32.4779 12.8935 32.6321 12.963 32.7641C13.0326 32.896 13.1517 32.995 13.2942 33.0391C16.3596 33.988 19.6402 33.988 22.7056 33.0391C22.8481 32.995 22.9672 32.896 23.0367 32.7641C23.1063 32.6321 23.1205 32.4779 23.0764 32.3354C23.0323 32.193 22.9333 32.0738 22.8014 32.0043C22.6694 31.9348 22.5152 31.9205 22.3727 31.9646Z" fill="black"/>
</svg>
