<svg width="73" height="73" viewBox="0 0 73 73" fill="none" xmlns="http://www.w3.org/2000/svg">
<path fill-rule="evenodd" clip-rule="evenodd" d="M24.8332 52.4512L25.4777 53.59C25.4783 53.5908 25.4787 53.5918 25.4793 53.5927C26.1608 54.8049 25.7283 56.3517 24.5233 57.0323L21.8925 58.5233C21.8914 58.524 21.8903 58.5246 21.8891 58.5253C20.6769 59.2068 19.1301 58.7744 18.4492 57.5686L10.7131 43.8993C10.0253 42.6859 10.4579 41.1374 11.6647 40.456L14.2984 38.9649L14.2994 38.9643C15.5056 38.283 17.0529 38.711 17.7399 39.9172L17.7413 39.9198L18.2434 40.8069L24.9467 36.9259C25.5307 36.5883 26.1184 36.2838 26.7121 36.0356C26.4548 35.4221 26.2355 34.7923 26.0553 34.1503L23.7254 33.2537C23.2833 33.0835 22.9916 32.6587 22.9916 32.1849V27.4843C22.9916 27.0105 23.2833 26.5857 23.7254 26.4155L26.0548 25.519C26.4034 24.2747 26.8982 23.0807 27.5326 21.9572L26.5177 19.6746C26.3252 19.2416 26.4193 18.7347 26.7544 18.3997L30.0774 15.0764C30.4125 14.7414 30.9195 14.6473 31.3525 14.8398L33.635 15.8548C34.7584 15.2204 35.9519 14.726 37.1932 14.3804L38.0937 12.0467C38.2642 11.6051 38.6887 11.3138 39.1621 11.3138H43.8628C44.3368 11.3138 44.7617 11.6058 44.9316 12.0481L45.828 14.3807C47.0688 14.7263 48.262 15.2206 49.3851 15.8548L51.6677 14.8398C52.1007 14.6473 52.6075 14.7414 52.9426 15.0764L56.2658 18.3997C56.6005 18.7343 56.6948 19.2405 56.5031 19.6732C56.5031 19.6732 55.4917 21.9563 55.4917 21.9562C56.1264 23.0803 56.6212 24.2749 56.9669 25.5197L59.2947 26.4155C59.7369 26.5857 60.0285 27.0105 60.0285 27.4843V32.1849C60.0285 32.6587 59.7369 33.0835 59.2947 33.2537L56.9663 34.1498C56.7084 35.0737 56.3672 35.9712 55.9488 36.833C58.2739 35.9762 59.9157 36.284 60.9423 36.9727C62.1051 37.753 62.648 39.0829 62.6134 40.3903C62.5782 41.7134 61.9414 42.9739 60.9036 43.613L43.8827 54.0925C42.0406 55.2295 40.0229 55.4971 37.9325 54.9395L37.9312 54.9392L26.0424 51.7529L24.8332 52.4512ZM19.3715 42.8003L23.7052 50.4578L25.3079 49.5324C25.5709 49.3804 25.8835 49.3394 26.1769 49.4179L38.5231 52.7267C39.983 53.1162 41.3934 52.9377 42.6799 52.1437L42.6809 52.143L59.7028 41.6629C60.1212 41.4053 60.3097 40.8631 60.3239 40.3294C60.3668 38.7179 58.7409 37.6352 54.9428 39.8478L45.5629 45.3109C44.0144 46.2131 42.3918 46.4642 40.6233 46.1826C40.6221 46.1823 40.6208 46.1822 40.6195 46.1819C40.6195 46.1819 39.4558 45.9927 39.4553 45.9925C39.4397 45.9899 39.4244 45.9872 39.409 45.9841C39.4085 45.9839 39.408 45.9838 39.4074 45.9836C37.2864 45.5482 35.3193 44.9078 33.1364 44.3212C32.5261 44.1572 32.1638 43.5286 32.3277 42.9182C32.4917 42.3079 33.1205 41.9455 33.7309 42.1095C35.8512 42.6793 37.7626 43.3045 39.8206 43.7305C40.7422 43.8293 41.4253 43.4617 41.6376 42.671L41.6378 42.6704C41.8513 41.8763 41.3496 41.1117 40.5811 40.8311C36.817 40.1375 33.1341 38.5782 30.8744 37.8454L30.8738 37.8453C29.1808 37.2955 27.6348 38.0171 26.0933 38.9085L19.3715 42.8003ZM28.9396 35.4171C29.8005 35.312 30.6789 35.374 31.5811 35.667C32.0872 35.8311 32.6666 36.0388 33.3035 36.2693C31.9122 34.4963 31.0828 32.2609 31.0828 29.8319C31.0828 24.0706 35.7484 19.4049 41.5098 19.4049C47.2709 19.4049 51.9421 24.0708 51.9421 29.8319C51.9421 34.9927 48.1934 39.279 43.271 40.1162C43.9036 41.0003 44.1543 42.1317 43.8494 43.2652C43.8123 43.4035 43.7696 43.5376 43.7218 43.667C43.9539 43.5755 44.183 43.4643 44.4098 43.3322L53.2083 38.2077L53.1593 38.0975C53.007 37.7534 53.0334 37.3563 53.2299 37.0354C53.9904 35.7943 54.5546 34.4439 54.8911 33.028C54.9784 32.6604 55.2414 32.3597 55.5939 32.224L57.7383 31.3987V28.2706L55.5939 27.4452C55.2411 27.3094 54.9782 27.0084 54.891 26.6405C54.5548 25.2212 53.9957 23.8718 53.2314 22.6315C53.0335 22.3102 53.0066 21.9121 53.1593 21.567L54.091 19.4637L51.8794 17.2521L49.7767 18.187C49.4314 18.3405 49.0325 18.3138 48.7108 18.1155C47.4705 17.3512 46.1208 16.7922 44.7058 16.4559C44.338 16.3685 44.0372 16.1053 43.9016 15.7525L43.076 13.604H39.9476L39.1178 15.7541C38.982 16.1062 38.6814 16.3687 38.3144 16.4559C36.8992 16.7922 35.5497 17.3512 34.3093 18.1155C33.9875 18.3138 33.5887 18.3405 33.2433 18.187L31.1406 17.2521L28.9299 19.4629L29.8649 21.5656C30.0183 21.911 29.9917 22.3097 29.7934 22.6315C29.0285 23.8728 28.4693 25.2233 28.1283 26.6438C28.0404 27.0101 27.7778 27.3098 27.4262 27.4452L25.2818 28.2706V31.3987L27.4262 32.224C27.7776 32.3593 28.04 32.6586 28.1282 33.0247C28.326 33.8465 28.5972 34.6476 28.9396 35.4171ZM15.7494 41.0501L15.7487 41.0487C15.6834 40.9363 15.539 40.8944 15.4258 40.9584L12.7929 42.4489L12.7919 42.4494C12.6798 42.5129 12.6417 42.6571 12.7056 42.7699L12.7059 42.7705L20.4423 56.4407L20.4429 56.4415C20.5067 56.5546 20.6523 56.5928 20.7661 56.5293L23.3941 55.0398L23.3955 55.0391C23.5087 54.9751 23.5469 54.8294 23.4832 54.7156L15.7494 41.0501ZM14.9474 42.3825C15.5444 42.2936 16.0988 42.7059 16.1877 43.303C16.273 43.9 15.8607 44.4581 15.2636 44.5433C14.6666 44.6321 14.1122 44.2163 14.0233 43.6193C13.938 43.0221 14.3502 42.4678 14.9474 42.3825ZM41.5098 21.6951C37.0139 21.6951 33.373 25.3361 33.373 29.8319C33.373 34.328 37.0137 37.9741 41.5098 37.9741C46.006 37.9741 49.6519 34.3283 49.6519 29.8319C49.6519 25.3358 46.0059 21.6951 41.5098 21.6951ZM40.2151 30.0445L44.1859 26.0323L44.188 26.0302C45.1996 25.0133 46.8507 25.0085 47.8675 26.0201C48.8838 27.0311 48.8907 28.6761 47.8797 29.6975L47.8791 29.6981C45.9382 31.6566 44.0118 33.6269 42.062 35.5767C41.0459 36.593 39.3958 36.593 38.3797 35.5767L35.1486 32.3428C34.1331 31.3272 34.1309 29.6833 35.1465 28.6625L35.1486 28.6605C36.1649 27.6442 37.8149 27.6442 38.8311 28.6605L40.2151 30.0445ZM39.4097 32.4778L37.2117 30.2798C37.0896 30.1577 36.8916 30.1574 36.7682 30.2796C36.6471 30.4034 36.6457 30.6011 36.7681 30.7234L39.999 33.9574C40.1215 34.0798 40.3202 34.0798 40.4427 33.9574C42.3898 32.0102 44.3136 30.0424 46.2519 28.0865C46.3736 27.9635 46.3746 27.7654 46.2524 27.6438C46.1307 27.5227 45.9332 27.5237 45.8119 27.645L41.0333 32.4736C40.8189 32.6902 40.527 32.8124 40.2223 32.8132C39.9177 32.814 39.6251 32.6934 39.4097 32.4778ZM28.5696 65.7001C29.1795 65.8656 29.5404 66.4951 29.3749 67.1051C29.2094 67.715 28.5798 68.0759 27.9699 67.9103C16.9615 64.9233 8.26316 56.2973 5.17426 45.3309C5.00293 44.7226 5.35762 44.0897 5.96595 43.9183C6.57429 43.747 7.20724 44.1017 7.37872 44.71C10.2502 54.9044 18.336 62.9234 28.5696 65.7001ZM65.6213 44.71C65.7927 44.1017 66.4257 43.747 67.034 43.9183C67.6424 44.0897 67.9971 44.7226 67.8257 45.3309C64.7848 56.1269 56.3075 64.6549 45.5413 67.7671C44.9341 67.9426 44.2987 67.5922 44.1232 66.985C43.9477 66.378 44.2981 65.7425 44.9053 65.567C54.9136 62.6739 62.7943 54.7462 65.6213 44.71ZM44.338 7.2789C43.7276 7.11544 43.3649 6.48707 43.5283 5.87659C43.6919 5.2661 44.3203 4.90325 44.9308 5.06671C56.2516 8.09979 65.1458 17.092 68.039 28.4691C68.1949 29.0816 67.824 29.7052 67.2115 29.8611C66.599 30.0168 65.9753 29.646 65.8195 29.0335C63.1298 18.4575 54.8619 10.0984 44.338 7.2789ZM7.30787 28.5492C7.14197 29.1591 6.51217 29.5194 5.90226 29.3535C5.29249 29.1875 4.93222 28.5577 5.09811 27.9479C8.1289 16.8121 16.9308 8.04426 28.0865 5.06213C28.697 4.89896 29.3252 5.2621 29.4884 5.87272C29.6517 6.4832 29.2885 7.11143 28.678 7.27461C18.3077 10.0469 10.1254 18.1974 7.30787 28.5492ZM36.5 1.00391C38.9245 1.00391 40.8929 2.97233 40.8929 5.39679C40.8929 7.82125 38.9245 9.78967 36.5 9.78967C34.0755 9.78967 32.1071 7.82125 32.1071 5.39679C32.1071 2.97233 34.0755 1.00391 36.5 1.00391ZM36.5 3.2941C35.3394 3.2941 34.3973 4.23623 34.3973 5.39679C34.3973 6.5572 35.3394 7.49948 36.5 7.49948C37.6605 7.49948 38.6027 6.5572 38.6027 5.39679C38.6027 4.23623 37.6605 3.2941 36.5 3.2941ZM71.998 36.5019C71.998 38.9264 70.0296 40.8948 67.6051 40.8948C65.1807 40.8948 63.2123 38.9264 63.2123 36.5019C63.2123 34.0775 65.1807 32.1091 67.6051 32.1091C70.0296 32.1091 71.998 34.0775 71.998 36.5019ZM69.7078 36.5019C69.7078 35.3414 68.7657 34.3993 67.6051 34.3993C66.4447 34.3993 65.5025 35.3414 65.5025 36.5019C65.5025 37.6625 66.4447 38.6046 67.6051 38.6046C68.7657 38.6046 69.7078 37.6625 69.7078 36.5019ZM36.5 72C34.0755 72 32.1071 70.0316 32.1071 67.6071C32.1071 65.1826 34.0755 63.2142 36.5 63.2142C38.9245 63.2142 40.8929 65.1826 40.8929 67.6071C40.8929 70.0316 38.9245 72 36.5 72ZM36.5 69.7098C37.6605 69.7098 38.6027 68.7677 38.6027 67.6071C38.6027 66.4467 37.6605 65.5044 36.5 65.5044C35.3394 65.5044 34.3973 66.4467 34.3973 67.6071C34.3973 68.7677 35.3394 69.7098 36.5 69.7098ZM1.00195 36.5019C1.00195 34.0775 2.97038 32.1091 5.39484 32.1091C7.81929 32.1091 9.78772 34.0775 9.78772 36.5019C9.78772 38.9264 7.81929 40.8948 5.39484 40.8948C2.97038 40.8948 1.00195 38.9264 1.00195 36.5019ZM3.29215 36.5019C3.29215 37.6625 4.23428 38.6046 5.39484 38.6046C6.55525 38.6046 7.49752 37.6625 7.49752 36.5019C7.49752 35.3414 6.55525 34.3993 5.39484 34.3993C4.23428 34.3993 3.29215 35.3414 3.29215 36.5019Z" fill="black"/>
</svg>
