<svg width="73" height="73" viewBox="0 0 73 73" fill="none" xmlns="http://www.w3.org/2000/svg">
<path d="M17.5617 36.9402C17.5898 36.3339 18.1039 35.8654 18.7102 35.8935C19.3164 35.9216 19.7851 36.4357 19.7568 37.042C19.7287 37.6481 19.2146 38.1167 18.6084 38.0886C18.0023 38.0606 17.5337 37.5464 17.5617 36.9402ZM65.2072 54.0648C64.9095 54.7392 64.3685 55.2569 63.6839 55.5224L60.3869 56.8006C60.0607 56.9271 59.7245 56.9871 59.394 56.9871C58.2891 56.9871 57.2443 56.318 56.8216 55.2274L56.6134 54.6902L54.2853 55.6615C54.3779 56.4161 54.2379 57.1897 53.8649 57.8679C53.4055 58.7029 52.6553 59.316 51.7448 59.6027C51.9805 60.4862 51.8917 61.4552 51.421 62.3108C50.9492 63.1687 50.169 63.7923 49.2239 64.0665C48.8074 64.1874 48.3815 64.2342 47.9619 64.2075C47.9602 64.7994 47.8155 65.3973 47.5125 65.9483C47.0383 66.8103 46.254 67.4356 45.304 67.7091C44.7968 67.855 44.2768 67.8907 43.7714 67.8189C43.749 68.3671 43.6033 68.9173 43.3227 69.4277C42.8485 70.2898 42.0308 70.9369 41.0795 71.2037C40.7507 71.2958 40.4171 71.3414 40.0869 71.3414C39.4677 71.3414 38.8594 71.1812 38.3118 70.8668L37.5657 70.4382C36.8435 71.3493 35.748 71.8588 34.6217 71.8588C34.025 71.859 33.4205 71.7165 32.8588 71.4161C32.1098 71.0155 31.5412 70.3894 31.2093 69.6539C30.2373 70.0032 29.1311 69.9526 28.1668 69.4367C27.5039 69.0821 26.98 68.5445 26.6378 67.9094C25.6017 68.3943 24.3595 68.4036 23.2779 67.8253C22.3967 67.3539 21.7511 66.5653 21.4598 65.6044C21.3186 65.1383 21.2691 64.6599 21.3092 64.1903C20.7591 64.167 20.2108 64.023 19.7056 63.753C17.8814 62.7772 17.191 60.4995 18.1667 58.6754L19.008 57.1024C18.8246 56.6302 18.7288 56.1275 18.6429 55.6655C18.491 54.849 18.369 54.3052 18.0694 54.189C17.8444 54.1016 17.2851 53.8589 16.3367 53.437L16.0668 54.0474C15.6122 55.076 14.6008 55.6889 13.5424 55.6889C13.1709 55.6889 12.7936 55.6135 12.4324 55.4539L9.19806 54.0245C7.80864 53.4101 7.17758 51.78 7.79167 50.3903L15.2176 33.5889C15.8319 32.1992 17.4623 31.5685 18.8517 32.1825L22.0863 33.612C22.7578 33.9088 23.2742 34.451 23.5403 35.1386C23.8063 35.8261 23.7895 36.5746 23.4927 37.2463L23.0209 38.3138L24.9348 39.1968C24.9625 39.2096 24.9897 39.2236 25.0164 39.2385C26.0482 39.819 27.1101 39.6121 28.7572 39.2261C30.7664 38.7553 33.2336 38.1782 36.1232 39.8275C40.1191 37.4114 43.1861 38.6615 45.4552 39.5893C47.0708 40.2496 48.0292 40.5996 48.9523 40.1197L50.6189 39.2276L50.182 38.1008C49.6326 36.6841 50.3386 35.0848 51.7552 34.5355L55.0522 33.2574C56.469 32.7076 58.0683 33.4138 58.6175 34.8304L65.2572 51.9576C65.5225 52.6419 65.5049 53.3904 65.2072 54.0648ZM13.98 53.1246L14.715 51.4618V51.4616V51.4615L21.4057 36.3234C21.474 36.1693 21.4392 36.0302 21.4124 35.9612C21.3856 35.8922 21.3179 35.766 21.1636 35.6979L17.9293 34.2684C17.6944 34.1645 17.4077 34.2754 17.3038 34.5105L9.87816 51.3119C9.77422 51.5469 9.88514 51.8335 10.1203 51.9375L13.3546 53.3669C13.5892 53.4708 13.8762 53.36 13.98 53.1246ZM22.3478 61.625L24.4362 58.0104C24.7335 57.3126 24.4506 56.4963 23.7792 56.138C23.0634 55.7559 22.1702 56.0263 21.7884 56.7407L20.1783 59.751C19.7957 60.4659 20.0665 61.3585 20.7814 61.7409C21.2821 62.0088 21.8935 61.9584 22.3478 61.625ZM26.3486 65.2009L28.6745 60.6965C28.7816 60.0786 28.4779 59.438 27.9227 59.1417C27.4165 58.8714 26.801 58.9244 26.3462 59.2642L24.2291 62.9285L23.7502 63.8234C23.5664 64.1669 23.5282 64.5643 23.6428 64.9422C23.7573 65.3201 24.0096 65.6295 24.3534 65.8132C25.0676 66.1952 25.962 65.9205 26.3486 65.2009ZM31.0934 67.0327L33.1463 63.0867C33.253 62.4692 32.9492 61.8293 32.3944 61.5333C31.8425 61.2386 31.1471 61.3366 30.6936 61.7588L28.4696 66.0655C28.4477 66.6255 28.7442 67.1579 29.2425 67.4247C29.8726 67.7614 30.6562 67.5912 31.0934 67.0327ZM35.9245 68.8013L37.4682 65.9148C37.7334 65.4187 37.687 64.8019 37.35 64.3434C37.2218 64.1687 37.0588 64.028 36.8656 63.9248C36.3134 63.6298 35.6176 63.7278 35.164 64.1512L33.1643 67.9945C33.1235 68.5673 33.4255 69.132 33.9344 69.4042C34.6497 69.7868 35.5422 69.516 35.9245 68.8013ZM40.7694 66.4243C40.7151 66.3938 40.6652 66.3586 40.6179 66.321L39.8579 65.8908C39.7903 66.2703 39.6661 66.6419 39.4799 66.9904L38.6959 68.4564L39.4479 68.8884C39.7521 69.0633 40.1127 69.1051 40.4637 69.007C40.8294 68.9045 41.143 68.6571 41.3238 68.3282C41.693 67.6568 41.4444 66.8026 40.7694 66.4243ZM51.8912 55.4944C51.8912 55.4943 51.8911 55.4942 51.8911 55.4939C51.7628 55.2295 51.5587 55.0121 51.3011 54.8652L42.5323 49.8673C41.1334 49.0699 39.3175 49.805 37.2152 50.6559C33.9647 51.9719 29.9197 53.6093 26.4292 49.1182C26.1738 48.7904 26.0722 48.3677 26.1509 47.9593C26.2296 47.5508 26.4811 47.196 26.841 46.9857C29.2982 45.5516 31.3718 43.988 33.0049 42.3375C33.3489 41.9899 33.6954 41.6651 34.0427 41.3618C32.3379 40.7302 30.8418 41.0801 29.2779 41.4466C27.5598 41.8491 25.7836 42.2655 23.9401 41.2496L22.0985 40.4L17.2589 51.3498C18.1565 51.7492 18.7056 51.9882 18.8949 52.0617C20.0838 52.5231 20.5079 53.5559 20.7346 54.5106C21.8715 53.5999 23.4891 53.397 24.8534 54.1254C25.8826 54.6746 26.5558 55.6449 26.7657 56.7178C27.5186 56.6242 28.2985 56.7563 28.997 57.1292C29.8506 57.5848 30.4669 58.3313 30.7694 59.1945C31.6538 58.9682 32.6157 59.0659 33.4686 59.5208C34.3222 59.9762 34.9384 60.7225 35.241 61.5858C36.1262 61.3587 37.0879 61.4569 37.9408 61.9126C38.3675 62.1404 38.7373 62.4414 39.0435 62.8083L43.6183 65.3978L43.6243 65.4012C43.9433 65.5786 44.3159 65.6196 44.6732 65.5167C45.0358 65.4125 45.3345 65.1751 45.5138 64.8487C45.8808 64.1814 45.6298 63.3292 44.9542 62.949C44.8993 62.9181 38.476 59.2852 38.476 59.2852C37.927 58.9763 37.7324 58.2808 38.0413 57.7318C38.3502 57.1827 39.0455 56.9879 39.5947 57.2971L47.5261 61.7599L47.5279 61.7609C47.8517 61.9391 48.2284 61.9795 48.5883 61.8754C48.9478 61.771 49.2443 61.535 49.4223 61.2113C49.7893 60.5437 49.5383 59.6917 48.8627 59.3114C48.8624 59.3113 48.8623 59.3111 48.862 59.3108C47.0016 58.2687 44.8933 57.0877 42.8203 55.9011C42.2736 55.5883 42.0841 54.8913 42.3971 54.3445C42.7096 53.7978 43.4065 53.6081 43.9536 53.9214C46.0186 55.1035 48.123 56.2823 49.9797 57.3223C50.2949 57.4989 50.6646 57.5401 51.0209 57.4382C51.3859 57.3338 51.6861 57.0959 51.8664 56.7681C52.0833 56.3734 52.0925 55.9091 51.8912 55.4944ZM55.7886 52.5623L51.4495 41.3699L50.0167 42.1367C48.0989 43.1342 46.3161 42.4052 44.5919 41.7003C42.2691 40.7509 40.0752 39.8545 36.7826 42.1131C36.0722 42.5985 35.3473 43.2135 34.6263 43.942C33.0508 45.5342 31.113 47.0433 28.8569 48.4361C30.967 50.5598 33.1456 49.8424 36.359 48.5415C38.7892 47.5578 41.3022 46.5402 43.6618 47.8853L52.4309 52.8834C52.7664 53.0747 53.0664 53.3131 53.3238 53.5909L55.7886 52.5623ZM63.1302 52.7817L56.4905 35.6545C56.4186 35.4691 56.234 35.353 56.0431 35.353C55.9872 35.353 55.931 35.3628 55.8767 35.3839L52.5797 36.662C52.3399 36.755 52.216 37.036 52.309 37.2758L53.1029 39.3235C53.1029 39.3237 53.103 39.3238 53.103 39.3239L58.9487 54.4029C59.0097 54.5601 59.1325 54.6337 59.2003 54.6636C59.2682 54.6933 59.4054 54.7343 59.5625 54.6736L62.8595 53.3954C63.099 53.3026 63.223 53.0214 63.1302 52.7817ZM55.0218 36.971C54.4166 36.971 53.923 37.4646 53.923 38.0697C53.923 38.6749 54.4166 39.1684 55.0218 39.1684C55.6271 39.1684 56.1205 38.6748 56.1205 38.0697C56.1205 37.4646 55.6269 36.971 55.0218 36.971ZM23.1101 15.0587C22.3405 13.5357 22.6593 11.7281 23.9033 10.5605C24.1164 10.3605 24.3072 10.1834 24.4786 10.0246C25.142 9.40919 25.4749 9.10023 25.6329 8.82676C25.7909 8.5533 25.8917 8.11059 26.0931 7.22846C26.145 7.00048 26.2031 6.74669 26.2696 6.46196C26.6589 4.80064 28.0653 3.62081 29.7688 3.52599C30.0608 3.50974 30.3207 3.49676 30.5543 3.48522C31.4581 3.44016 31.9118 3.41763 32.2083 3.3097C32.505 3.20177 32.8672 2.92731 33.5885 2.38095C33.7748 2.2398 33.9823 2.08267 34.2162 1.90745C35.5826 0.884876 37.4181 0.885161 38.7839 1.90745C39.018 2.08267 39.2254 2.2398 39.4116 2.38095C40.1329 2.92745 40.495 3.20177 40.7917 3.3097C41.0882 3.41763 41.542 3.4403 42.4459 3.48522C42.6794 3.49691 42.9393 3.50974 43.2313 3.52599C44.935 3.62081 46.3412 4.80064 46.7303 6.4621C46.7971 6.74683 46.8549 7.00062 46.9068 7.2286C47.1082 8.11088 47.2091 8.55358 47.3671 8.8269C47.5251 9.10023 47.8578 9.40919 48.5214 10.0247C48.6928 10.1837 48.8835 10.3606 49.0967 10.5607C50.341 11.7284 50.6598 13.5361 49.8899 15.059C49.758 15.3199 49.6392 15.5515 49.5326 15.7595C49.1196 16.5648 48.9122 16.969 48.8576 17.2799C48.8027 17.5909 48.8593 18.0416 48.9718 18.9394C49.0009 19.1714 49.0334 19.4296 49.068 19.72C49.2701 21.4093 48.3579 22.994 46.7979 23.6693L49.4775 29.8908C49.6456 30.2811 49.5827 30.7323 49.3146 31.062C49.0464 31.3916 48.6173 31.5456 48.2009 31.4595L44.638 30.7299L42.7203 33.8203C42.5112 34.157 42.1437 34.3594 41.7514 34.3594C41.7231 34.3594 41.6949 34.3584 41.6662 34.3562C41.2425 34.3247 40.8715 34.0602 40.7034 33.67L38.3087 28.1099C38.2421 28.0894 38.1771 28.0692 38.1145 28.05C37.2499 27.7831 36.8159 27.6491 36.5001 27.6491C36.2795 27.6491 36.0006 27.7147 35.5578 27.8453L32.1972 35.0633C32.0178 35.4484 31.6393 35.7019 31.2147 35.7213C31.1974 35.722 31.18 35.7224 31.1629 35.7224C30.7579 35.7224 30.3817 35.5073 30.1769 35.155L28.3496 32.0103L24.7667 32.6363C24.3478 32.7093 23.9238 32.5439 23.665 32.2066C23.4067 31.8694 23.3571 31.4164 23.5364 31.0312L26.8381 23.9399C26.6493 23.8603 26.4436 23.7734 26.216 23.676C24.6474 23.0042 23.7296 21.4146 23.9321 19.7202C23.9667 19.4299 23.9992 19.1717 24.0283 18.9397C24.1408 18.0419 24.1974 17.5912 24.1425 17.2802C24.0878 16.9693 23.8805 16.565 23.4676 15.7598C23.3608 15.5513 23.242 15.3196 23.1101 15.0587ZM32.7664 28.435C31.6009 28.3581 30.5151 27.7474 29.8414 26.7175C29.6813 26.4727 29.5401 26.2539 29.4132 26.0575C29.1506 25.6506 28.9581 25.353 28.7987 25.1324L26.5267 30.0124L28.7398 29.6258C29.2102 29.5441 29.6823 29.7632 29.9224 30.1763L31.0512 32.1189L32.7664 28.435ZM46.5177 28.7858L44.7166 24.6039C44.6597 24.6402 44.6096 24.6762 44.5657 24.7131C44.3239 24.916 44.0775 25.2977 43.5866 26.0579C43.4597 26.2544 43.3186 26.4729 43.1586 26.7176C42.6135 27.5511 41.7987 28.1115 40.89 28.3359L41.9341 30.7603L43.1188 28.8511C43.3709 28.4454 43.8484 28.2389 44.3169 28.3353L46.5177 28.7858ZM25.1461 14.0297C25.2757 14.2861 25.3927 14.5139 25.4974 14.7184C26.5387 16.7487 26.5756 16.9591 26.2917 19.2231C26.2632 19.4511 26.2313 19.705 26.1972 19.9905C26.1147 20.6813 26.4745 21.3046 27.1141 21.5785C27.3785 21.6916 27.6142 21.7911 27.8259 21.8804C29.9283 22.7663 30.0922 22.9038 31.3296 24.8203C31.4544 25.0134 31.5932 25.2285 31.7506 25.4692C32.1315 26.0513 32.808 26.2976 33.4737 26.0963C33.7489 26.0131 33.9934 25.9377 34.213 25.8698C35.3031 25.5335 35.9017 25.3653 36.5001 25.3653C37.0986 25.3653 37.6971 25.5335 38.7872 25.8698C39.0067 25.9377 39.2512 26.0131 39.5264 26.0963C40.1924 26.2977 40.8688 26.0515 41.2495 25.4692C41.4069 25.2287 41.5456 25.0137 41.6702 24.8206C42.9081 22.9038 43.0718 22.7665 45.1742 21.8804C45.386 21.7911 45.6219 21.6917 45.8861 21.5785C46.5256 21.3046 46.8854 20.6814 46.8029 19.9906C46.7688 19.7052 46.7369 19.4513 46.7084 19.2233C46.4245 16.9594 46.4617 16.7488 47.5027 14.7185C47.6075 14.5141 47.7244 14.2864 47.854 14.0299C48.1678 13.4091 48.0428 12.7002 47.5356 12.2241C47.326 12.0274 47.1384 11.8534 46.9699 11.6971C45.2973 10.1455 45.1903 9.96026 44.6829 7.7359C44.6319 7.51176 44.5748 7.26225 44.5092 6.98223C44.3507 6.30498 43.7993 5.84232 43.1046 5.80368C42.8174 5.78771 42.5618 5.77488 42.3324 5.76347C40.0535 5.64998 39.8526 5.57684 38.0342 4.19896C37.851 4.06023 37.647 3.90568 37.417 3.73344C36.8602 3.31669 36.1405 3.31655 35.5834 3.73344C35.3533 3.90568 35.1493 4.06023 34.9662 4.19896C33.1475 5.57684 32.9467 5.64998 30.668 5.76347C30.4385 5.77488 30.1828 5.78757 29.8958 5.80368C29.2012 5.84232 28.6498 6.30498 28.491 6.98237C28.4254 7.26225 28.3685 7.51176 28.3174 7.7359C27.8099 9.96026 27.703 10.1453 26.0304 11.6971C25.8619 11.8534 25.6742 12.0274 25.4647 12.2241C24.9574 12.6999 24.8325 13.4088 25.1461 14.0297ZM27.8852 14.7928C27.8852 10.0425 31.7498 6.17795 36.5001 6.17795C41.2503 6.17795 45.1149 10.0425 45.1149 14.7928C45.1149 19.5431 41.2503 23.4077 36.5001 23.4077C31.7498 23.4077 27.8852 19.5431 27.8852 14.7928ZM30.1665 14.7928C30.1665 18.2851 33.0077 21.1264 36.5001 21.1264C39.9924 21.1264 42.8337 18.2851 42.8337 14.7928C42.8337 11.3003 39.9924 8.4592 36.5001 8.4592C33.0077 8.4592 30.1665 11.3005 30.1665 14.7928ZM34.8181 18.5285C35.0921 18.5285 35.3666 18.4303 35.5844 18.2325L41.3032 13.0425C41.7697 12.6192 41.8048 11.8978 41.3814 11.4312C40.958 10.9647 40.2366 10.9299 39.7702 11.3531L34.856 15.8128L33.2698 14.2266C32.8243 13.7812 32.1022 13.7812 31.6567 14.2266C31.2113 14.672 31.2113 15.3942 31.6567 15.8396L34.0114 18.1943C34.2335 18.4166 34.5255 18.5285 34.8181 18.5285Z" fill="black"/>
</svg>
