<svg width="36" height="37" viewBox="0 0 36 37" fill="none" xmlns="http://www.w3.org/2000/svg">
<path d="M21.2574 23.7639C21.2019 23.6543 21.178 23.5314 21.1886 23.409C21.1992 23.2866 21.2438 23.1696 21.3174 23.0711L24.0632 19.3752C24.125 19.2925 24.2052 19.2253 24.2975 19.1789C24.3898 19.1326 24.4916 19.1083 24.5948 19.1081C24.6981 19.1083 24.7999 19.1325 24.8922 19.1789C24.9845 19.2253 25.0647 19.2925 25.1265 19.3752L26.1445 20.7451C26.489 19.7214 26.6639 18.6483 26.6622 17.5682C26.6622 12.0758 22.1937 7.60732 16.7012 7.60732C11.2087 7.60732 6.7403 12.0756 6.7403 17.5684C6.7403 22.1434 9.92989 26.1816 14.3544 27.2512L16.0781 24.9309C16.1397 24.848 16.2199 24.7806 16.3122 24.7342C16.4046 24.6878 16.5065 24.6636 16.6098 24.6636C16.7132 24.6636 16.8151 24.6878 16.9074 24.7342C16.9997 24.7806 17.0799 24.848 17.1416 24.9309L18.8919 27.287C20.1873 26.9937 21.4112 26.445 22.4919 25.673V24.1287H21.849C21.7262 24.129 21.6057 24.095 21.5012 24.0306C21.3967 23.9661 21.3123 23.8737 21.2574 23.7639ZM23.7836 17.0762H25.4063C25.5368 17.0762 25.662 17.128 25.7543 17.2203C25.8466 17.3126 25.8985 17.4378 25.8985 17.5684C25.8985 17.6989 25.8466 17.8241 25.7543 17.9164C25.662 18.0087 25.5368 18.0605 25.4063 18.0605H23.7836C23.653 18.0605 23.5278 18.0087 23.4355 17.9164C23.3432 17.8241 23.2914 17.6989 23.2914 17.5684C23.2914 17.4378 23.3432 17.3126 23.4355 17.2203C23.5278 17.128 23.653 17.0762 23.7836 17.0762ZM16.209 8.86324C16.209 8.73271 16.2609 8.60752 16.3532 8.51521C16.4455 8.42291 16.5707 8.37106 16.7012 8.37106C16.8317 8.37106 16.9569 8.42291 17.0492 8.51521C17.1415 8.60752 17.1934 8.73271 17.1934 8.86324V10.486C17.1934 10.6165 17.1415 10.7417 17.0492 10.834C16.9569 10.9263 16.8317 10.9782 16.7012 10.9782C16.5707 10.9782 16.4455 10.9263 16.3532 10.834C16.2609 10.7417 16.209 10.6165 16.209 10.486V8.86324ZM9.61883 18.0605H7.99609C7.86555 18.0605 7.74036 18.0087 7.64806 17.9164C7.55575 17.8241 7.5039 17.6989 7.5039 17.5684C7.5039 17.4378 7.55575 17.3126 7.64806 17.2203C7.74036 17.128 7.86555 17.0762 7.99609 17.0762H9.61883C9.74936 17.0762 9.87455 17.128 9.96686 17.2203C10.0592 17.3126 10.111 17.4378 10.111 17.5684C10.111 17.6989 10.0592 17.8241 9.96686 17.9164C9.87455 18.0087 9.74936 18.0605 9.61883 18.0605ZM18.6524 17.5684C18.6526 17.8703 18.5828 18.1682 18.4484 18.4386C18.3139 18.709 18.1186 18.9445 17.8777 19.1266C17.6368 19.3086 17.3569 19.4323 17.0601 19.4878C16.7633 19.5434 16.4576 19.5293 16.1672 19.4466C15.8767 19.3639 15.6095 19.215 15.3864 19.0115C15.1633 18.808 14.9905 18.5555 14.8815 18.2739C14.7726 17.9922 14.7305 17.6891 14.7586 17.3885C14.7867 17.0878 14.8842 16.7978 15.0434 16.5412L11.7998 13.2975C11.7541 13.2518 11.7178 13.1975 11.6931 13.1378C11.6683 13.0781 11.6556 13.0141 11.6556 12.9495C11.6556 12.8848 11.6683 12.8208 11.6931 12.7611C11.7178 12.7014 11.7541 12.6471 11.7998 12.6014C11.8455 12.5557 11.8997 12.5194 11.9595 12.4947C12.0192 12.47 12.0832 12.4572 12.1478 12.4572C12.2125 12.4572 12.2765 12.47 12.3362 12.4947C12.3959 12.5194 12.4502 12.5557 12.4959 12.6014L15.7565 15.862C16.0455 15.7015 16.3707 15.6173 16.7013 15.6173C17.0319 15.6173 17.357 15.7015 17.6461 15.862L22.2726 11.2354C22.3649 11.1431 22.4901 11.0913 22.6207 11.0913C22.7512 11.0913 22.8764 11.1431 22.9687 11.2354C23.061 11.3278 23.1129 11.453 23.1129 11.5835C23.1129 11.714 23.061 11.8392 22.9687 11.9315L18.3588 16.5414C18.5509 16.8495 18.6526 17.2053 18.6523 17.5684H18.6524ZM17.668 17.5684C17.668 17.7596 17.6113 17.9465 17.5051 18.1055C17.3989 18.2644 17.2479 18.3884 17.0713 18.4615C16.8946 18.5347 16.7002 18.5539 16.5127 18.5166C16.3252 18.4793 16.1529 18.3872 16.0177 18.252C15.8825 18.1168 15.7904 17.9446 15.7531 17.757C15.7158 17.5695 15.735 17.3751 15.8081 17.1985C15.8813 17.0218 16.0052 16.8709 16.1642 16.7646C16.3232 16.6584 16.5101 16.6017 16.7013 16.6017C16.9575 16.602 17.2032 16.704 17.3844 16.8852C17.5657 17.0664 17.6677 17.3121 17.668 17.5684ZM26.7005 23.1441H26.3758C26.2002 23.1443 26.0319 23.2142 25.9077 23.3384C25.7835 23.4626 25.7136 23.6309 25.7134 23.8065V34.204C25.7134 34.2077 25.7119 34.2113 25.7093 34.214C25.7067 34.2166 25.7031 34.2181 25.6994 34.2181H23.4906C23.4868 34.2181 23.4833 34.2166 23.4806 34.214C23.478 34.2113 23.4765 34.2077 23.4765 34.204V23.8067C23.4763 23.6311 23.4064 23.4627 23.2822 23.3385C23.158 23.2143 22.9897 23.1445 22.814 23.1443H22.4893L24.5948 20.3101L26.7005 23.1441ZM29.8344 18.5725H30.4774V20.5785C30.3533 20.6122 30.2272 20.6426 30.099 20.6699C29.8021 20.7362 29.5271 20.8772 29.2999 21.0795C29.0727 21.2818 28.9009 21.5388 28.8008 21.8261C28.6487 22.2579 28.4735 22.6813 28.276 23.0944C28.1467 23.3663 28.0889 23.6667 28.1081 23.9671C28.1274 24.2676 28.2231 24.5581 28.3861 24.8112C28.6988 25.2873 28.9426 25.8052 29.1103 26.3495C29.1501 26.4829 29.1529 26.6246 29.1184 26.7595C29.0838 26.8943 29.0132 27.0172 28.9141 27.115L26.6977 29.332V24.1289H27.3407C27.4634 24.1289 27.5838 24.0947 27.6883 24.0303C27.7928 23.9659 27.8774 23.8737 27.9325 23.764C27.9877 23.6543 28.0113 23.5314 28.0007 23.4091C27.9901 23.2868 27.9457 23.1698 27.8724 23.0713L26.8445 21.6873C27.3768 20.3794 27.6492 18.9803 27.6465 17.5681C27.6465 11.5329 22.7365 6.62288 16.7012 6.62288C10.6659 6.62288 5.75593 11.5331 5.75593 17.5684C5.75613 19.952 6.53422 22.2706 7.97202 24.1718C9.40983 26.073 11.4288 27.4531 13.7223 28.1025L13.3325 28.6272C13.2594 28.7257 13.215 28.8427 13.2044 28.965C13.1938 29.0873 13.2174 29.2101 13.2726 29.3198C13.3277 29.4294 13.4122 29.5216 13.5167 29.5861C13.6212 29.6505 13.7415 29.6846 13.8643 29.6847H14.5074V32.8832C14.3533 32.8136 14.2273 32.6939 14.15 32.5436C13.8982 32.0441 13.7131 31.5138 13.5993 30.9662C13.533 30.6692 13.392 30.3941 13.1897 30.1669C12.9874 29.9397 12.7304 29.7679 12.4431 29.6678C12.0112 29.5157 11.5878 29.3405 11.1746 29.1431C10.9028 29.0137 10.6024 28.9559 10.302 28.9751C10.0015 28.9944 9.71098 29.0901 9.45788 29.2531C8.98182 29.5658 8.46393 29.8096 7.91959 29.9773C7.7862 30.0171 7.64449 30.0199 7.50964 29.9853C7.3748 29.9508 7.25189 29.8802 7.15409 29.7811L4.50127 27.1285C4.40049 27.0299 4.32907 26.9052 4.29498 26.7683C4.26089 26.6315 4.26547 26.4879 4.3082 26.3535C4.48335 25.822 4.72752 25.3158 5.03445 24.8478C5.19757 24.5908 5.29234 24.2963 5.30978 23.9924C5.32722 23.6884 5.26674 23.3851 5.13409 23.1111C4.93596 22.6983 4.76018 22.2751 4.60752 21.8434C4.50662 21.56 4.33508 21.3072 4.10914 21.1087C3.88319 20.9102 3.61032 20.7726 3.31637 20.7091C2.75891 20.5934 2.22057 20.3996 1.71732 20.1334C1.59473 20.0671 1.49247 19.9688 1.42151 19.8488C1.35055 19.7289 1.31356 19.5919 1.3145 19.4525V15.7025C1.31294 15.5613 1.35058 15.4225 1.42324 15.3015C1.4959 15.1805 1.60073 15.0821 1.72604 15.0171C2.22551 14.7653 2.75586 14.5801 3.3035 14.4662C3.60038 14.3999 3.87543 14.2589 4.10259 14.0566C4.32975 13.8542 4.50151 13.5973 4.60161 13.31C4.75372 12.8781 4.92891 12.4547 5.12642 12.0416C5.25579 11.7697 5.31359 11.4693 5.29432 11.1689C5.27505 10.8685 5.17935 10.5779 5.01631 10.3248C4.70369 9.84872 4.45987 9.33084 4.29209 8.78653C4.25226 8.65314 4.24946 8.51142 4.28401 8.37656C4.31855 8.2417 4.38914 8.11878 4.4882 8.02097L7.14109 5.36815C7.23973 5.26736 7.36443 5.19595 7.50127 5.16186C7.63812 5.12777 7.78174 5.13234 7.91614 5.17507C8.44773 5.35051 8.95399 5.59496 9.42195 5.90217C9.67898 6.06534 9.97342 6.16015 10.2774 6.1776C10.5813 6.19505 10.8847 6.13456 11.1587 6.00188C11.5715 5.80384 11.9946 5.62806 12.4262 5.47531C12.7096 5.37442 12.9625 5.20284 13.161 4.97684C13.3595 4.75084 13.497 4.4779 13.5605 4.18388C13.6761 3.62632 13.8698 3.08787 14.1359 2.58448C14.2022 2.46188 14.3006 2.35963 14.4205 2.28867C14.5405 2.21771 14.6775 2.18072 14.8168 2.18166H18.5671C18.708 2.18121 18.8463 2.21932 18.9672 2.29188C19.088 2.36443 19.1866 2.46866 19.2524 2.59327C19.5042 3.0927 19.6893 3.623 19.8031 4.17059C19.8694 4.46747 20.0104 4.74252 20.2127 4.9697C20.415 5.19687 20.672 5.36865 20.9592 5.46877C21.3912 5.62086 21.8146 5.79605 22.2278 5.99358C22.4996 6.12293 22.8 6.1807 23.1004 6.16143C23.4008 6.14216 23.6913 6.04649 23.9444 5.88347C24.4205 5.5708 24.9385 5.32698 25.4828 5.15925C25.6162 5.11934 25.7579 5.11651 25.8928 5.15107C26.0276 5.18563 26.1506 5.25628 26.2483 5.35542L28.9011 8.00824C29.0019 8.10691 29.0733 8.23161 29.1074 8.36846C29.1415 8.50532 29.137 8.64895 29.0943 8.78337C28.919 9.31481 28.6747 9.82097 28.3678 10.2889C28.2046 10.5459 28.1098 10.8404 28.0924 11.1443C28.0749 11.4482 28.1354 11.7516 28.268 12.0256C28.4661 12.4384 28.6419 12.8616 28.7946 13.2933C28.8955 13.5766 29.067 13.8294 29.293 14.0279C29.5189 14.2264 29.7917 14.364 30.0857 14.4276C30.5049 14.5153 30.9138 14.6463 31.3059 14.8185L29.3027 17.5149C29.2295 17.6135 29.1851 17.7304 29.1745 17.8527C29.1638 17.975 29.1874 18.0979 29.2425 18.2076C29.2977 18.3173 29.3822 18.4095 29.4867 18.4739C29.5912 18.5384 29.7116 18.5725 29.8344 18.5725ZM34.6859 17.5881H34.3612C34.1856 17.5883 34.0172 17.6582 33.893 17.7824C33.7688 17.9066 33.699 18.075 33.6987 18.2506V34.204C33.6987 34.2077 33.6973 34.2113 33.6946 34.214C33.692 34.2166 33.6884 34.2181 33.6847 34.2181H31.4757C31.472 34.2181 31.4684 34.2166 31.4658 34.214C31.4632 34.2113 31.4617 34.2077 31.4617 34.204V18.2507C31.4615 18.0751 31.3916 17.9067 31.2674 17.7825C31.1433 17.6583 30.9749 17.5885 30.7993 17.5883H30.4746L32.5801 14.7545L34.6859 17.5881ZM18.7153 28.7003H18.3906C18.215 28.7005 18.0466 28.7703 17.9224 28.8945C17.7982 29.0187 17.7283 29.1871 17.7281 29.3627V34.204C17.7281 34.2077 17.7266 34.2113 17.724 34.214C17.7214 34.2166 17.7178 34.2181 17.714 34.2181H15.5055C15.5017 34.2181 15.4982 34.2166 15.4955 34.214C15.4929 34.2113 15.4914 34.2077 15.4914 34.204V29.3627C15.4912 29.1871 15.4213 29.0187 15.2971 28.8945C15.1729 28.7703 15.0045 28.7005 14.8289 28.7003H14.5042L16.6097 25.8661L18.7153 28.7003ZM19.5279 28.1434C20.574 27.8628 21.5729 27.4292 22.4922 26.8566V29.0376C22.4071 29.064 22.3241 29.0966 22.2438 29.1351C21.831 29.3332 21.4078 29.509 20.9761 29.6617C20.6928 29.7626 20.44 29.9342 20.2415 30.1601C20.043 30.386 19.9054 30.6589 19.8418 30.9528C19.7263 31.5104 19.5326 32.0488 19.2665 32.5522C19.2106 32.6557 19.1315 32.7449 19.0354 32.8129C18.9393 32.8808 18.8288 32.9256 18.7125 32.9437V29.6847H19.3555C19.4783 29.6847 19.5986 29.6505 19.7031 29.5861C19.8076 29.5217 19.8921 29.4295 19.9473 29.3198C20.0025 29.2101 20.026 29.0873 20.0154 28.965C20.0048 28.8427 19.9605 28.7257 19.8873 28.6272L19.5279 28.1434Z" fill="black"/>
</svg>
