<svg width="73" height="73" viewBox="0 0 73 73" fill="none" xmlns="http://www.w3.org/2000/svg">
<g clip-path="url(#clip0_7_397)">
<path d="M70.3014 28.6994L65.2256 27.7869C64.6553 25.9054 63.9008 24.0848 62.9729 22.3515L65.9171 18.1153C66.3566 17.484 66.5599 16.7183 66.4916 15.9522C66.4232 15.1861 66.0875 14.4684 65.5433 13.9249L59.0758 7.45684C58.5322 6.91264 57.8145 6.57698 57.0484 6.50863C56.2823 6.44029 55.5165 6.64361 54.8852 7.083L50.6492 10.0274C48.9159 9.09948 47.0952 8.34491 45.2137 7.77464L44.3012 2.69886C44.1655 1.94164 43.7677 1.2563 43.1775 0.762871C42.5873 0.269443 41.8423 -0.000613797 41.0731 1.04756e-06H31.927C31.1578 -0.000536455 30.413 0.269546 29.8229 0.762946C29.2328 1.25635 28.8352 1.94161 28.6996 2.69872L27.7863 7.7745C25.9048 8.3448 24.0842 9.09937 22.3508 10.0272L18.1147 7.08285C17.4834 6.64352 16.7176 6.44025 15.9515 6.50862C15.1854 6.57699 14.4677 6.91265 13.9242 7.45684L7.45684 13.9243C6.91263 14.4678 6.57697 15.1855 6.50862 15.9516C6.44028 16.7177 6.6436 17.4834 7.083 18.1147L10.0272 22.3508C9.09951 24.0842 8.34495 25.9049 7.7745 27.7863L2.69872 28.6988C1.94152 28.8345 1.2562 29.2323 0.762796 29.8224C0.269389 30.4126 -0.000642264 31.1576 1.14715e-06 31.9268V41.0732C-0.000514307 41.8423 0.269558 42.5871 0.762924 43.1772C1.25629 43.7672 1.9415 44.1649 2.69858 44.3006L7.77436 45.2131C8.34464 47.0946 9.09921 48.9152 10.0271 50.6485L7.083 54.8853C6.6436 55.5166 6.44028 56.2823 6.50862 57.0484C6.57697 57.8145 6.91263 58.5322 7.45684 59.0757L13.9242 65.5432C14.4677 66.0874 15.1854 66.4231 15.9516 66.4915C16.7177 66.5598 17.4835 66.3565 18.1148 65.917L22.3508 62.9726C24.0841 63.9005 25.9048 64.6551 27.7863 65.2254L28.6988 70.3011C28.8345 71.0584 29.2323 71.7437 29.8225 72.2372C30.4127 72.7306 31.1577 73.0006 31.927 73H41.0731C41.8422 73.0005 42.5871 72.7304 43.1772 72.237C43.7673 71.7436 44.165 71.0584 44.3007 70.3013L45.2132 65.2255C47.0947 64.6552 48.9153 63.9006 50.6486 62.9728L54.8849 65.9173C55.5163 66.3567 56.2821 66.5601 57.0483 66.4917C57.8145 66.4233 58.5323 66.0875 59.0758 65.5432L65.5432 59.0757C66.0874 58.5322 66.423 57.8145 66.4914 57.0484C66.5597 56.2823 66.3564 55.5166 65.917 54.8853L62.9728 50.6492C63.9005 48.9158 64.6551 47.0951 65.2255 45.2137L70.3013 44.3012C71.0585 44.1655 71.7438 43.7677 72.2372 43.1776C72.7306 42.5874 73.0006 41.8424 73 41.0732V31.9268C73.0005 31.1577 72.7304 30.4129 72.2371 29.8228C71.7437 29.2328 71.0585 28.8351 70.3014 28.6994ZM70.7188 41.0732C70.7213 41.3079 70.64 41.5359 70.4894 41.716C70.3388 41.896 70.1289 42.0164 69.8974 42.0554L64.1256 43.0938C63.9142 43.1318 63.7178 43.2288 63.559 43.3736C63.4002 43.5183 63.2856 43.705 63.2283 43.9121C62.6245 46.0916 61.7552 48.1887 60.6399 50.1561C60.5339 50.3431 60.4828 50.5562 60.4926 50.7709C60.5024 50.9857 60.5727 51.1932 60.6954 51.3698L64.0438 56.1873C64.1798 56.3786 64.2431 56.6122 64.2222 56.846C64.2013 57.0798 64.0976 57.2984 63.9297 57.4625L57.4623 63.93C57.2981 64.0979 57.0795 64.2016 56.8456 64.2225C56.6118 64.2434 56.3782 64.1801 56.1869 64.0441L51.3699 60.6955C51.1934 60.5728 50.9858 60.5025 50.7711 60.4927C50.5564 60.4828 50.3433 60.5339 50.1563 60.6399C48.1886 61.7554 46.0912 62.6247 43.9114 63.2284C43.7043 63.2857 43.5176 63.4003 43.3728 63.5591C43.228 63.7178 43.131 63.9142 43.093 64.1256L42.0548 69.8974C42.0158 70.1288 41.8955 70.3386 41.7155 70.4892C41.5355 70.6398 41.3077 70.7212 41.0731 70.7188H31.927C31.6922 70.7214 31.4642 70.64 31.2842 70.4894C31.1041 70.3388 30.9837 70.1289 30.9447 69.8974L29.9063 64.1255C29.8683 63.9141 29.7713 63.7177 29.6265 63.5589C29.4817 63.4002 29.295 63.2856 29.0879 63.2283C26.9084 62.6245 24.8113 61.7552 22.8439 60.6398C22.6569 60.5337 22.4437 60.4827 22.229 60.4925C22.0142 60.5023 21.8066 60.5727 21.6301 60.6954L16.8128 64.0438C16.6215 64.1799 16.3879 64.2432 16.1541 64.2223C15.9202 64.2014 15.7016 64.0976 15.5375 63.9297L9.06997 57.4625C8.90214 57.2984 8.79843 57.0798 8.77751 56.846C8.7566 56.6122 8.81986 56.3786 8.9559 56.1873L12.3045 51.3698C12.4271 51.1933 12.4974 50.9857 12.5072 50.771C12.517 50.5563 12.466 50.3432 12.36 50.1563C11.2446 48.1888 10.3753 46.0917 9.77159 43.9122C9.71429 43.7051 9.59965 43.5184 9.44088 43.3736C9.28212 43.2288 9.08568 43.1319 8.87421 43.0938L3.1025 42.0554C2.87104 42.0164 2.66111 41.896 2.51055 41.7159C2.35998 41.5358 2.27866 41.3079 2.28125 41.0732V31.9268C2.27866 31.6921 2.35998 31.4642 2.51055 31.2841C2.66111 31.104 2.87104 30.9836 3.1025 30.9446L8.87435 29.9062C9.08579 29.8682 9.2822 29.7712 9.44096 29.6265C9.59972 29.4817 9.71438 29.2951 9.77174 29.0881C10.3755 26.9085 11.2448 24.8114 12.3601 22.8439C12.4661 22.6569 12.5172 22.4438 12.5074 22.2291C12.4976 22.0143 12.4273 21.8068 12.3046 21.6302L8.95619 16.8127C8.82018 16.6214 8.75693 16.3878 8.77784 16.154C8.79876 15.9202 8.90245 15.7016 9.07025 15.5375L15.5377 9.06997C15.7019 8.90218 15.9206 8.7985 16.1544 8.77759C16.3882 8.75668 16.6218 8.81991 16.8131 8.9559L21.6301 12.3045C21.8066 12.4272 22.0142 12.4975 22.2289 12.5073C22.4436 12.5172 22.6567 12.4661 22.8437 12.3601C24.8111 11.2446 26.9082 10.3753 29.0878 9.77174C29.2949 9.71445 29.4816 9.59982 29.6264 9.44106C29.7713 9.28229 29.8683 9.08584 29.9063 8.87435L30.9447 3.10236C30.9838 2.87091 31.1042 2.661 31.2842 2.51046C31.4643 2.35991 31.6922 2.27863 31.927 2.28125H41.0731C41.3078 2.27864 41.5358 2.35995 41.7159 2.51055C41.896 2.66115 42.0164 2.87113 42.0554 3.10264L43.0937 8.87449C43.1317 9.08599 43.2287 9.28243 43.3736 9.4412C43.5184 9.59997 43.7051 9.71459 43.9122 9.77188C46.0918 10.3754 48.1889 11.2447 50.1563 12.3602C50.3433 12.4663 50.5564 12.5173 50.7711 12.5075C50.9858 12.4976 51.1934 12.4273 51.3699 12.3046L56.1872 8.95619C56.3785 8.82014 56.6121 8.75687 56.8459 8.77778C57.0797 8.7987 57.2984 8.90241 57.4625 9.07025L63.93 15.5377C64.0978 15.7019 64.2015 15.9205 64.2224 16.1543C64.2434 16.3881 64.1801 16.6217 64.0441 16.813L60.6955 21.6302C60.5729 21.8068 60.5026 22.0143 60.4928 22.2291C60.4829 22.4438 60.534 22.6569 60.64 22.8439C61.7554 24.8113 62.6247 26.9083 63.2284 29.0878C63.2857 29.2949 63.4004 29.4816 63.5591 29.6264C63.7179 29.7712 63.9143 29.8682 64.1258 29.9062L69.8976 30.9446C70.1291 30.9836 70.339 31.104 70.4896 31.2841C70.6402 31.4642 70.7215 31.6921 70.7189 31.9268L70.7188 41.0732ZM21.1513 30.373C21.0442 30.2683 20.9588 30.1435 20.8999 30.0058C20.841 29.8681 20.8098 29.7201 20.8081 29.5703C20.8064 29.4205 20.8342 29.2719 20.8899 29.1328C20.9457 28.9938 21.0282 28.8671 21.1329 28.76L28.7975 20.9193C28.9853 20.7272 29.235 20.6076 29.5024 20.5815C29.7698 20.5554 30.0378 20.6246 30.2592 20.7768L37.1119 25.488L42.9991 19.1451H42.0399C41.7374 19.1451 41.4472 19.0249 41.2333 18.811C41.0194 18.5971 40.8993 18.307 40.8993 18.0045C40.8993 17.702 41.0194 17.4118 41.2333 17.1979C41.4472 16.984 41.7374 16.8639 42.0399 16.8639H45.7911C46.0936 16.8639 46.3837 16.984 46.5976 17.1979C46.8116 17.4118 46.9317 17.702 46.9317 18.0045V21.7556C46.9317 22.0581 46.8116 22.3482 46.5976 22.5621C46.3837 22.776 46.0936 22.8962 45.7911 22.8962C45.4886 22.8962 45.1985 22.776 44.9846 22.5621C44.7707 22.3482 44.6505 22.0581 44.6505 21.7556V20.7193L38.1136 27.7627C37.9273 27.9633 37.6751 28.0903 37.403 28.1204C37.1309 28.1505 36.8571 28.0817 36.6315 27.9266L29.7578 23.201L22.7642 30.3549C22.5527 30.5712 22.264 30.6946 21.9615 30.698C21.6591 30.7014 21.3676 30.5846 21.1513 30.3731V30.373ZM50.6694 46.4021C51.5602 44.2686 51.5788 41.8709 50.7213 39.7239C49.8638 37.5769 48.1984 35.8518 46.083 34.9191V26.986C46.083 26.6835 45.9628 26.3934 45.7489 26.1795C45.535 25.9656 45.2449 25.8454 44.9423 25.8454C44.6398 25.8454 44.3497 25.9656 44.1358 26.1795C43.9219 26.3934 43.8017 26.6835 43.8017 26.986V34.2649C43.3795 34.2041 42.9535 34.1735 42.5269 34.1734C41.0954 34.1706 39.685 34.5177 38.4182 35.1844V33.5059C38.4182 33.2033 38.2981 32.9132 38.0842 32.6993C37.8703 32.4854 37.5801 32.3652 37.2776 32.3652C36.9751 32.3652 36.685 32.4854 36.4711 32.6993C36.2572 32.9132 36.137 33.2033 36.137 33.5059V36.9146C35.2217 37.8758 34.5351 39.0312 34.1286 40.2947C33.722 41.5582 33.606 42.8972 33.789 44.2118H30.7541V29.708C30.7541 29.4055 30.6339 29.1154 30.42 28.9015C30.2061 28.6876 29.916 28.5674 29.6135 28.5674C29.311 28.5674 29.0208 28.6876 28.8069 28.9015C28.593 29.1154 28.4729 29.4055 28.4729 29.708V44.2123H23.0891V36.0778C23.0891 35.7753 22.9689 35.4852 22.755 35.2713C22.5411 35.0574 22.251 34.9372 21.9485 34.9372C21.646 34.9372 21.3558 35.0574 21.1419 35.2713C20.928 35.4852 20.8079 35.7753 20.8079 36.0778V44.2123H18.4771C18.1746 44.2123 17.8845 44.3325 17.6706 44.5464C17.4567 44.7603 17.3365 45.0504 17.3365 45.353C17.3365 45.6555 17.4567 45.9456 17.6706 46.1595C17.8845 46.3734 18.1746 46.4936 18.4771 46.4936H34.4244C35.3458 48.6253 37.0699 50.3084 39.2232 51.1783C41.3765 52.0482 43.7857 52.0351 45.9294 51.1416L49.9444 55.1566C50.573 55.7852 51.4255 56.1384 52.3144 56.1384C53.2034 56.1384 54.0559 55.7853 54.6845 55.1567C55.3131 54.5281 55.6662 53.6756 55.6662 52.7867C55.6662 51.8977 55.3131 51.0452 54.6846 50.4166L50.6694 46.4021ZM37.8991 47.6282C36.984 46.7129 36.3608 45.5469 36.1083 44.2774C35.8559 43.0079 35.9856 41.6922 36.4809 40.4964C36.9763 39.3006 37.8151 38.2786 38.8913 37.5595C39.9674 36.8405 41.2327 36.4567 42.527 36.4567C43.8213 36.4567 45.0865 36.8405 46.1627 37.5595C47.2389 38.2786 48.0777 39.3006 48.5731 40.4964C49.0684 41.6922 49.1981 43.0079 48.9456 44.2774C48.6932 45.5469 48.07 46.7129 47.1549 47.6282C45.9264 48.8537 44.2621 49.5419 42.5269 49.5418C40.7917 49.5417 39.1274 48.8533 37.8991 47.6277V47.6282ZM48.7681 49.2414C49.0206 48.9878 49.2575 48.7191 49.4775 48.4369L50.1322 49.0916L48.6191 50.6048L47.9644 49.9501C48.2464 49.7301 48.5148 49.4932 48.7681 49.2408V49.2414ZM53.0713 53.5446C52.8697 53.7438 52.5978 53.8555 52.3144 53.8555C52.031 53.8555 51.7591 53.7438 51.5575 53.5446L50.2316 52.2187L51.7453 50.7049L53.0713 52.0309C53.2714 52.2318 53.3838 52.5039 53.3838 52.7875C53.3838 53.0711 53.2714 53.3431 53.0713 53.5441V53.5446Z" fill="black"/>
</g>
<defs>
<clipPath id="clip0_7_397">
<rect width="73" height="73" fill="white"/>
</clipPath>
</defs>
</svg>
