<svg width="73" height="73" viewBox="0 0 73 73" fill="none" xmlns="http://www.w3.org/2000/svg">
<path d="M65.5095 45.6432C65.5586 45.6375 65.6053 45.625 65.6555 45.625H69.5781V36.5H65.6555C65.0795 36.5 64.581 36.0871 64.4613 35.478C64.3484 34.9111 64.6518 34.3408 65.1822 34.1218L68.8071 32.6207L65.3145 24.1904L61.6873 25.6914C61.1546 25.9104 60.5387 25.72 60.1942 25.2055C59.8725 24.7253 59.933 24.082 60.3391 23.6748L63.1153 20.8985L57.7932 15.5764L58.4422 12.5469H54.0953L44.9429 8.75658L43.4418 12.3815C43.224 12.9107 42.6651 13.2153 42.1632 13.1206L42.0446 13.0944C41.4754 12.9826 41.0625 12.483 41.0625 11.907V7.98438H34.7583C31.8691 3.85303 27.0841 1.14062 21.6719 1.14062H12.1762L13.8438 6.98062C15.0209 11.0994 17.6854 14.5179 21.146 16.7159C21.0582 16.9691 20.894 17.1995 20.643 17.3672C20.164 17.6888 19.5195 17.6284 19.1123 17.2223L16.336 14.446L9.88466 20.8974L12.6609 23.6737C13.067 24.0797 13.1275 24.7242 12.783 25.2386C12.4613 25.72 11.8408 25.9082 11.3127 25.6903L7.68553 24.1892L4.19294 32.6196L7.81784 34.1207C8.34823 34.3397 8.6505 34.91 8.55697 35.3993L8.53073 35.5179C8.42009 36.0871 7.9205 36.5 7.34448 36.5H3.42188V45.625H7.34448C7.39467 45.625 7.44144 45.6375 7.49048 45.6432C3.58612 49.3822 1.14062 54.6337 1.14062 60.4531V71.8594H71.8594V60.4531C71.8594 54.6337 69.4139 49.3822 65.5095 45.6432ZM59.8897 20.8985L58.7262 22.062C57.5514 23.2368 57.3712 25.0938 58.3213 26.507C59.2475 27.8906 61.0303 28.4324 62.561 27.7982L64.0803 27.1697L65.8255 31.3843L64.3084 32.0128C62.7766 32.647 61.9006 34.2906 62.2302 35.9582C62.5519 37.5939 63.9925 38.7812 65.6555 38.7812H67.2969V43.3438H65.6555C64.9027 43.3438 64.1978 43.6061 63.6081 44.0384C62.6089 43.289 61.5436 42.6309 60.4166 42.0708C60.4303 41.7355 60.4531 41.4013 60.4531 41.0625C60.4531 35.1917 58.3156 29.6243 54.4546 25.2466C55.5975 23.7136 56.4324 21.9285 56.8499 19.9769L57.224 18.2318L59.8897 20.8985ZM34.0123 60.4531H38.9866L40.8116 69.5781H32.1884L34.0123 60.4531ZM39.1314 58.1719H33.8674L31.5748 52.0558C32.0173 51.8996 32.4668 51.7627 32.9219 51.6441L36.5 55.2222L40.077 51.6452C40.5321 51.7638 40.9815 51.9007 41.4241 52.057L39.1314 58.1719ZM14.8304 41.1195C14.8304 41.1001 14.8281 41.0819 14.8281 41.0625C14.8281 36.7281 16.1421 32.4884 18.5534 28.9217L19.4591 31.1858C19.8514 32.1656 20.3784 33.0587 21.016 33.848C20.1115 35.7905 19.5811 37.8961 19.4534 40.0462C17.8462 40.2207 16.3041 40.596 14.8304 41.1195ZM46.7576 30.3817C49.3788 32.9013 50.9802 36.289 51.2654 39.9219H37.6406V30.7969H43.4658C44.595 30.7969 45.6969 30.6486 46.7576 30.3817ZM37.6406 50.8559V42.2031H46.2934L37.6406 50.8559ZM26.7066 42.2031H35.3594V50.8559L26.7066 42.2031ZM35.3594 30.5767L35.2909 30.4068C34.7172 28.973 33.848 27.7297 32.7759 26.7237C33.6233 26.5047 34.4891 26.369 35.3594 26.3017V30.5767ZM33.1728 31.2531L34.8142 35.3594H28.9901C25.7063 35.3594 22.7954 33.3884 21.5772 30.3406L19.9347 26.2344H25.7599C29.0437 26.2344 31.9546 28.2054 33.1728 31.2531ZM22.7623 35.5145C24.5109 36.8547 26.6701 37.6406 28.9901 37.6406H35.3594V39.9219H21.7415C21.8589 38.406 22.1977 36.9175 22.7623 35.5145ZM37.6406 22.6733V19.4226C38.2896 19.4568 38.9341 19.5241 39.574 19.6153C38.8349 20.562 38.1858 21.584 37.6406 22.6733ZM35.3594 19.4465V24.0159C33.6792 24.1288 32.0173 24.4869 30.4353 25.0858C29.0198 24.3638 27.432 23.9531 25.7599 23.9531H23.23C26.7146 21.2384 30.9041 19.6769 35.3594 19.4465ZM23.4809 42.2031L31.0866 49.8088C28.2715 50.7533 25.696 52.3319 23.5915 54.4261L21.8464 42.2031H23.4809ZM41.9134 49.8088L49.5191 42.2031H51.1536L49.4085 54.4261C47.304 52.3319 44.7273 50.7533 41.9134 49.8088ZM53.5558 40.0485C53.3219 36.1418 51.7764 32.4303 49.1518 29.5456C50.5479 28.9012 51.8266 28.0286 52.9318 26.9701C56.3058 30.8961 58.1719 35.8476 58.1719 41.0625C58.1719 41.0819 58.1696 41.1001 58.1696 41.1195C56.6982 40.5971 55.1583 40.2219 53.5558 40.0485ZM54.62 19.499C53.4999 24.7242 48.8096 28.5156 43.4658 28.5156H38.0113L38.6136 26.4089C40.5629 19.5914 46.8763 14.8281 53.9675 14.8281H55.6192L54.62 19.499ZM38.7812 10.2656V11.907C38.7812 13.57 39.9686 15.0106 41.6419 15.3403C41.8678 15.3848 42.0948 15.4064 42.3195 15.4064C43.7099 15.4064 45.0045 14.5738 45.5497 13.2541L46.1782 11.737L49.4951 13.1103C46.4326 13.8928 43.6483 15.468 41.3887 17.6181C40.1591 17.3626 38.9056 17.2006 37.6406 17.1413V17.1094C37.6406 14.6582 37.0692 12.3438 36.078 10.2656H38.7812ZM16.0383 6.35442L15.1988 3.42188H21.6719C29.2194 3.42188 35.3594 9.56186 35.3594 17.1094H30.2961C23.7102 17.1094 17.8462 12.6872 16.0383 6.35442ZM7.34448 43.3438H5.70312V38.7812H7.34448C9.00752 38.7812 10.4481 37.5939 10.7778 35.9206C11.0994 34.2906 10.2234 32.647 8.69156 32.0128L7.17453 31.3843L8.91969 27.1697L10.439 27.7982C11.9686 28.4301 13.7525 27.8906 14.6981 26.4773C15.6266 25.0938 15.4475 23.2368 14.2726 22.062L13.1092 20.8985L16.3349 17.6728L17.4983 18.8363C18.6743 20.0123 20.529 20.1902 21.9433 19.2423C22.4863 18.8796 22.9037 18.38 23.1707 17.8097C24.3911 18.3732 25.6812 18.7941 27.0214 19.0576C24.3512 20.2073 21.9 21.8601 19.7625 23.952H16.5642L17.5565 26.4317C14.3331 30.6075 12.5469 35.7689 12.5469 41.0625C12.5469 41.4013 12.5697 41.7355 12.5834 42.0708C11.4564 42.6309 10.39 43.289 9.39191 44.0384C8.80334 43.6061 8.09844 43.3438 7.34448 43.3438ZM3.42188 60.4531C3.42188 51.1057 10.4903 43.3871 19.5606 42.3354L22.0563 59.8007L23.9326 57.459C25.4416 55.5713 27.3396 54.0348 29.4726 52.9444L31.8964 59.4083L29.8616 69.5781H14.8281V57.8263L12.3552 54.117L10.4573 55.3819L12.5469 58.5175V69.5781H3.42188V60.4531ZM69.5781 69.5781H60.4531V58.5175L62.5428 55.383L60.6447 54.1181L58.1719 57.8263V69.5781H43.1384L41.1036 59.4083L43.5274 52.9444C45.6604 54.0348 47.5584 55.5713 49.0685 57.459L50.9437 59.8007L53.4394 42.3354C62.5097 43.3871 69.5781 51.1057 69.5781 60.4531V69.5781Z" fill="black"/>
</svg>
