<svg width="38" height="38" viewBox="0 0 38 38" fill="none" xmlns="http://www.w3.org/2000/svg">
<path d="M36.8559 33.8419C36.5872 34.5802 36.2453 35.275 35.6592 35.8232C33.9008 37.4734 31.2605 37.3812 29.6079 35.5898C26.794 32.5418 23.9881 29.4857 21.1796 26.435C21.0765 26.3237 20.9734 26.2151 20.9272 26.1663C20.5989 26.3617 20.3981 26.587 19.8825 26.644C19.7658 26.6792 19.5515 26.5354 19.4402 26.4187C19.1092 26.074 19.2096 25.7781 19.8825 25.029C19.5813 24.7006 19.2801 24.3722 18.9572 24.0221C18.8812 24.0899 18.8107 24.1469 18.751 24.2066C17.5109 25.4443 16.2762 26.6901 15.028 27.9196C14.857 28.0906 14.819 28.2426 14.8679 28.4733C15.8637 33.0304 12.2221 37.278 7.56568 36.9713C7.00126 36.9333 6.43684 36.7949 5.8887 36.6483C5.25101 36.4773 5.09905 35.8829 5.56578 35.4107C6.4287 34.5367 7.29975 33.6763 8.17894 32.8187C8.36618 32.6341 8.42588 32.4441 8.46115 32.1835C8.52628 31.7086 8.45573 31.3042 8.24407 30.9622C8.11653 30.7559 7.07724 29.7245 6.72176 29.6051C6.41513 29.502 6.07593 29.4884 5.70418 29.5562C5.53594 29.5861 5.34327 29.654 5.22659 29.768C4.36096 30.6202 3.51162 31.4887 2.65414 32.3491C2.09514 32.9082 1.52801 32.7589 1.30007 31.9963C0.106101 27.9712 2.61615 23.8348 6.73533 23.0558C7.68508 22.8767 8.64025 22.9066 9.59 23.1155C9.70397 23.14 9.88306 23.121 9.95633 23.0477C11.6333 21.3866 13.2994 19.7147 14.9818 18.0319C14.8977 17.9424 14.8245 17.8555 14.743 17.7768C12.0376 15.0626 9.32949 12.3512 6.62679 9.6316C6.45041 9.45247 6.27674 9.35747 6.01895 9.37104C5.58749 9.39276 5.15332 9.37104 4.72187 9.37647C4.42609 9.37647 4.20358 9.25162 4.05433 9.00192C3.08016 7.38157 2.106 5.7585 1.13725 4.13543C0.950018 3.8233 0.939165 3.49761 1.19967 3.2289C1.85906 2.55036 2.53474 1.8854 3.20499 1.22043C3.28639 1.14172 3.38951 1.08743 3.48448 1.01958C3.61202 0.957153 3.92408 1.063 3.94308 1.07386C5.59563 2.06182 7.24819 3.04977 8.90346 4.02958C9.21824 4.21414 9.36748 4.47199 9.36206 4.83297C9.35663 5.22924 9.37562 5.62822 9.35663 6.02449C9.34306 6.29048 9.42718 6.47775 9.61713 6.66774C12.3198 9.36562 15.0171 12.0716 17.7117 14.7804C17.7931 14.8618 17.9776 15.0328 17.9776 15.0328C19.622 13.3907 21.3506 11.6645 22.9841 10.0116C23.0737 9.92202 23.1117 9.71574 23.0845 9.58275C22.919 8.7875 22.8484 7.99225 22.9706 7.18343C23.3505 4.63755 24.6882 2.77021 27.0138 1.68183C27.7383 1.34256 29.8929 0.783447 31.9714 1.32628C32.7394 1.52713 32.8778 2.11067 32.3188 2.68064C31.4776 3.54103 30.6255 4.39056 29.7952 5.25909C29.6812 5.37852 29.6161 5.56851 29.5862 5.7395C29.5102 6.1412 29.5347 6.50489 29.6622 6.82788C29.7897 7.15086 30.7015 8.10082 30.8752 8.22295C31.2334 8.46994 31.6675 8.5378 32.1695 8.47537C32.4138 8.44552 32.601 8.40209 32.7774 8.21753C33.6321 7.33814 34.4951 6.4669 35.3634 5.60379C35.8464 5.1261 36.4298 5.28352 36.6306 5.9322C37.1245 7.03958 37.0404 8.22296 36.8531 9.43618C36.8043 9.58818 36.75 9.74017 36.7066 9.89488C36.4217 10.91 35.9577 11.8355 35.2494 12.6172C33.3988 14.6718 31.1004 15.4209 28.3923 14.8862C28.1779 14.8455 28.0531 14.8862 27.9065 15.0355C26.6746 16.2786 25.4318 17.5162 24.1944 18.7539C24.1211 18.8272 24.0533 18.9059 23.9637 18.9982C24.3056 19.313 24.6367 19.617 24.965 19.9156C25.7981 19.256 26.083 19.18 26.4086 19.5139C26.7316 19.8423 26.6637 20.111 26.0477 20.9062C26.1373 20.9904 26.2295 21.0799 26.3218 21.1641C29.2199 23.8267 32.1098 26.4974 35.0269 29.141C35.8383 29.8765 36.5329 30.6609 36.8531 31.7303C37.0648 32.3735 37.0214 32.9978 36.8531 33.8338L36.8559 33.8419ZM30.4953 2.51237C30.0448 2.37666 29.1792 2.42823 28.5035 2.62093C25.4128 3.48946 23.6869 6.52661 24.5526 9.61532C24.6882 10.0957 24.5933 10.4269 24.2459 10.7743C19.736 15.2689 15.2342 19.7717 10.7405 24.2826C10.3905 24.6328 10.0486 24.7196 9.57914 24.5893C6.72719 23.8077 3.95393 25.1566 2.80609 27.8789C2.45333 28.7149 2.34207 29.5942 2.44519 30.5252C3.15614 29.8249 3.84267 29.16 4.51564 28.4842C4.74629 28.2535 4.99594 28.1395 5.32428 28.1476C5.87242 28.1612 6.42327 28.1612 6.97141 28.1476C7.28618 28.1395 7.53312 28.2453 7.75292 28.4679C8.33362 29.0596 8.91975 29.6485 9.5113 30.2266C9.75281 30.4628 9.86135 30.7369 9.85593 31.0707C9.84778 31.5837 9.84778 32.0994 9.85593 32.6124C9.86135 32.9598 9.75281 33.2421 9.49774 33.4863C8.91703 34.0455 8.3499 34.6209 7.78005 35.1881C7.67965 35.2885 7.57925 35.3944 7.45985 35.5165C8.33362 35.7147 9.78809 35.4297 10.7134 34.9031C13.0525 33.5705 14.1244 31.0056 13.4053 28.4109C13.2832 27.9739 13.3184 27.64 13.6576 27.3035C18.2001 22.7736 22.7345 18.2382 27.2634 13.6974C27.5836 13.3771 27.9065 13.3066 28.338 13.4314C31.0895 14.2294 33.9062 12.9212 35.0785 10.3047C35.4746 9.4199 35.6212 8.49166 35.5099 7.50099C34.8098 8.19038 34.1287 8.8445 33.4666 9.5149C33.2197 9.7646 32.951 9.88673 32.5956 9.87588C32.0583 9.85959 31.521 9.86231 30.9837 9.87588C30.6689 9.88402 30.4193 9.77817 30.2049 9.55018C29.6324 8.95035 29.0381 8.36952 28.4899 7.74798C28.3217 7.55527 28.2104 7.25943 28.1887 7.00158C28.1426 6.45604 28.1779 5.90507 28.1725 5.35409C28.1697 5.03111 28.2837 4.77055 28.5144 4.54256C29.1032 3.95901 29.6812 3.3619 30.2619 2.77021C30.3406 2.68879 30.4139 2.60465 30.498 2.50965L30.4953 2.51237ZM21.8824 25.1105C21.8987 25.1322 21.9096 25.1539 21.9258 25.1702C24.8429 28.3403 27.7546 31.5159 30.6825 34.6779C31.7869 35.8721 33.6484 35.8884 34.7501 34.7484C35.8681 33.5922 35.8084 31.7819 34.609 30.6799C31.5237 27.8436 28.433 25.01 25.3449 22.1764C25.2445 22.0842 25.1387 22 25.0627 21.9322C23.9936 23.0016 22.9461 24.0492 21.8851 25.1105H21.8824ZM16.9953 16.0044C16.8732 15.8986 16.7701 15.8226 16.6805 15.733C13.9073 12.9564 11.1394 10.1772 8.36075 7.40599C8.08126 7.12915 7.93201 6.74645 7.95643 6.3529C7.97814 6.01363 7.97543 5.67165 7.94558 5.33509C7.93201 5.19395 7.85332 5.06639 7.73392 4.99039C7.19664 4.64298 6.64035 4.32 6.0895 3.99158C5.38669 3.56817 4.68116 3.14748 3.94308 2.70507C3.84267 2.64536 3.71242 2.66164 3.63373 2.74578C3.35423 3.04163 3.08288 3.33747 2.79253 3.61431C2.62428 3.77445 2.62157 3.89659 2.74097 4.08929C3.3081 5.01482 3.85896 5.94849 4.41795 6.87945C4.63503 7.24043 4.77614 7.73712 5.09634 7.91354C5.43011 8.0981 5.93483 7.99225 6.36629 7.97868C6.77875 7.96783 7.09623 8.10353 7.39201 8.40209C10.1544 11.1868 12.9304 13.9634 15.6955 16.7454C15.7905 16.8404 15.8746 16.8974 15.9777 17.0114C16.3956 16.6016 16.6344 16.3681 17.0034 16.0099L16.9953 16.0044ZM23.9746 20.9225C23.6354 20.6104 23.3043 20.3091 23.0058 20.035C21.9855 21.0555 20.9897 22.0489 19.9802 23.0585C20.2651 23.368 20.5718 23.6991 20.873 24.0248C21.9096 22.988 22.9217 21.9729 23.9719 20.9198L23.9746 20.9225Z" fill="black" stroke="black" stroke-width="0.5"/>
</svg>
