<svg width="36" height="36" viewBox="0 0 36 36" fill="none" xmlns="http://www.w3.org/2000/svg">
<g clip-path="url(#clip0_64_313)">
<path d="M23.5216 20.2979C22.8937 20.2979 22.2819 20.3675 21.6941 20.4969V10.4703C21.6941 10.2474 21.8776 10.0618 22.1026 10.0618H24.9391C25.1641 10.0618 25.3476 10.2474 25.3476 10.4703V20.4976C24.7598 20.3682 24.1473 20.2979 23.5216 20.2979ZM18.2502 22.152V14.2292C18.2502 14.0042 18.0667 13.8186 17.8417 13.8186H15.0053C14.7824 13.8186 14.5968 14.0042 14.5968 14.2292V15.7719C15.6648 17.0319 16.311 18.6638 16.311 20.4456C16.311 22.2273 15.6655 23.8578 14.5968 25.1171V26.1254C14.5968 26.3504 14.7824 26.5339 15.0053 26.5339H15.3857C15.854 24.7824 16.877 23.2559 18.2502 22.152ZM32.0364 6.30431H29.2C28.975 6.30431 28.7915 6.48782 28.7915 6.71282V22.1513C30.1668 23.2552 31.187 24.7824 31.6553 26.5339H32.0357C32.2586 26.5339 32.4442 26.3504 32.4442 26.1254V6.71282C32.4449 6.48782 32.2593 6.30431 32.0364 6.30431ZM32.6425 0.83118L30.5057 0.0359452C30.2104 -0.0737423 29.882 0.0760233 29.7723 0.370633C29.6626 0.665242 29.8124 0.992195 30.107 1.10399L31.064 1.45907L14.3317 10.3184C14.0526 10.464 13.9471 10.8085 14.0926 11.0877C14.2403 11.3668 14.5848 11.4723 14.864 11.3267L31.3846 2.57915L31.1153 3.30477C31.0056 3.60009 31.1554 3.92634 31.45 4.03602C31.7453 4.14782 32.0716 3.99595 32.1812 3.70134L32.9765 1.56454C33.0869 1.26993 32.9371 0.940867 32.6425 0.83118ZM20.4025 31.7588H21.3116V29.0363H20.4025V31.7588ZM26.5675 28.5195C26.5337 28.4816 26.5 28.4556 26.4676 28.4401C26.436 28.426 26.3938 28.4183 26.3439 28.4183H24.3027C23.9877 28.4183 23.7304 28.1631 23.7304 27.8481C23.7304 27.7461 23.7564 27.6526 23.8021 27.571C23.8977 27.3734 23.9694 26.967 23.9694 26.5424C23.9694 26.297 23.9455 26.0621 23.8858 25.8828C23.8562 25.783 23.8218 25.7113 23.788 25.6874C23.7325 25.757 23.736 25.8013 23.7423 25.8765C23.7444 25.9124 23.7466 25.9524 23.7501 26.0502C23.7838 26.8995 23.4273 27.6027 23.0723 28.3044C22.9584 28.5315 22.843 28.7586 22.7411 29.004C22.6975 29.1074 22.6258 29.191 22.54 29.2515L22.4521 29.3211V31.2744L22.8487 31.4277C22.8683 31.4354 22.8866 31.4396 22.9028 31.4438C22.9148 31.4459 22.933 31.4459 22.9583 31.4459H26.0036C26.0795 31.4459 26.147 31.4199 26.1969 31.3763C26.2511 31.3306 26.2869 31.2666 26.2968 31.1928L26.6357 28.7551C26.642 28.7073 26.6399 28.6651 26.628 28.6278C26.6188 28.5934 26.5991 28.5575 26.5675 28.5195ZM30.8003 28.7213C30.8003 32.7313 27.5294 36.0001 23.5216 36.0001C19.5116 36.0001 16.2407 32.7313 16.2407 28.7213C16.2407 24.7114 19.5116 21.4426 23.5216 21.4426C27.5301 21.4419 30.8003 24.7107 30.8003 28.7213ZM27.7234 28.3044C27.6658 28.1089 27.5659 27.9275 27.4281 27.77C27.2903 27.6125 27.1272 27.4888 26.9401 27.4051C26.7524 27.3193 26.5534 27.2757 26.3439 27.2757H25.0544C25.0902 27.0423 25.112 26.7891 25.112 26.5424C25.112 26.1957 25.0698 25.8406 24.9728 25.5341C24.8491 25.1516 24.6381 24.8387 24.3091 24.6692C24.1494 24.5856 23.9723 24.542 23.7768 24.542C23.5912 24.542 23.4238 24.5856 23.2762 24.6615C23.1383 24.7332 23.023 24.8331 22.9253 24.9484C22.5604 25.3808 22.5766 25.5861 22.6026 25.9566C22.6082 26.0143 22.6124 26.0762 22.6124 26.0902C22.6342 26.6464 22.3452 27.2181 22.0541 27.7925C22.026 27.8481 21.9986 27.9043 21.9705 27.9599C21.8727 27.9163 21.7651 27.8938 21.6512 27.8938H20.0608C19.8393 27.8938 19.6382 27.9838 19.4926 28.1293C19.3492 28.2727 19.2578 28.4738 19.2578 28.6953V32.0998C19.2578 32.3213 19.3492 32.5224 19.4926 32.668C19.6382 32.8114 19.8393 32.9014 20.0608 32.9014H21.6512C21.8727 32.9014 22.0738 32.8114 22.2173 32.668C22.277 32.6082 22.3269 32.5386 22.367 32.4627L22.4387 32.4908C22.5266 32.5245 22.6082 32.5484 22.694 32.5646C22.7854 32.5829 22.8712 32.5906 22.9591 32.5906H26.0043C26.3629 32.5906 26.6941 32.4591 26.9493 32.2377C27.2024 32.0162 27.3775 31.7075 27.4274 31.351L27.7663 28.9112C27.7951 28.7009 27.7811 28.4977 27.7234 28.3044ZM15.1663 20.4456C15.1663 23.8002 12.4319 26.5346 9.07726 26.5346C5.72265 26.5346 2.98608 23.8002 2.98608 20.4456C2.98608 17.0909 5.72265 14.3544 9.07726 14.3544C12.4319 14.3544 15.1663 17.0909 15.1663 20.4456ZM14.2262 20.4456C14.2262 19.0224 13.6504 17.735 12.7194 16.8041C11.7864 15.871 10.499 15.2952 9.07796 15.2952C7.65483 15.2952 6.36952 15.871 5.43647 16.8041C4.50343 17.735 3.92757 19.0224 3.92757 20.4456C3.92757 21.8666 4.50343 23.154 5.43647 24.0849C6.36882 25.018 7.65483 25.5938 9.07796 25.5938C10.499 25.5938 11.7864 25.018 12.7194 24.0849C13.6497 23.154 14.2262 21.8666 14.2262 20.4456ZM13.0837 20.4456C13.0837 21.5516 12.6351 22.5521 11.9094 23.2777C11.1838 24.0034 10.1833 24.452 9.07726 24.452C7.97124 24.452 6.96858 24.0034 6.24296 23.2777C5.51944 22.5521 5.07085 21.5516 5.07085 20.4456C5.07085 19.3374 5.51944 18.3369 6.24296 17.6113C6.96858 16.8877 7.97124 16.4391 9.07726 16.4391C10.1833 16.4391 11.1838 16.8877 11.9094 17.6113C12.6351 18.3369 13.0837 19.3374 13.0837 20.4456ZM8.40999 19.2798C8.40999 19.1223 8.4796 18.9788 8.59351 18.8713C8.71515 18.7574 8.88671 18.6856 9.07796 18.6856C9.26921 18.6856 9.44077 18.7574 9.56241 18.8713C9.67421 18.9788 9.74593 19.1223 9.74593 19.2798C9.74593 19.5948 10.0012 19.8521 10.3162 19.8521C10.6333 19.8521 10.8885 19.5948 10.8885 19.2798C10.8885 18.7953 10.679 18.3573 10.3443 18.0423C10.1488 17.8588 9.91186 17.7174 9.6489 17.6338V17.3166C9.6489 17.0016 9.39366 16.7443 9.07866 16.7443C8.76155 16.7443 8.50632 17.0016 8.50632 17.3166V17.6338C8.24335 17.7174 8.0064 17.8588 7.81304 18.0423C7.47624 18.3573 7.26671 18.796 7.26671 19.2798C7.26671 19.7635 7.47624 20.2023 7.81304 20.5173C8.13999 20.8245 8.58858 21.0158 9.07866 21.0158C9.26991 21.0158 9.44147 21.0875 9.56311 21.2028C9.67491 21.3083 9.74663 21.4517 9.74663 21.6092C9.74663 21.7667 9.67491 21.9102 9.56311 22.0177C9.44147 22.1316 9.26991 22.2034 9.07866 22.2034C8.88741 22.2034 8.71585 22.1316 8.59421 22.0177C8.4803 21.9102 8.41069 21.7667 8.41069 21.6092C8.41069 21.2942 8.15335 21.0369 7.83835 21.0369C7.52335 21.0369 7.26601 21.2942 7.26601 21.6092C7.26601 22.0937 7.47554 22.5317 7.81233 22.8467C8.00569 23.0302 8.24265 23.1716 8.50562 23.2552V23.5724C8.50562 23.8874 8.76085 24.1447 9.07796 24.1447C9.39296 24.1447 9.64819 23.8874 9.64819 23.5724V23.2574C9.91116 23.1716 10.1481 23.0302 10.3436 22.8467C10.6783 22.5317 10.8878 22.093 10.8878 21.6092C10.8878 21.1255 10.6783 20.6881 10.3436 20.3717C10.0469 20.0926 9.6503 19.9091 9.21155 19.8774C9.18765 19.8753 9.16374 19.8732 9.13772 19.8732H9.07796C8.88671 19.8732 8.71515 19.8015 8.59351 19.6876C8.4796 19.5807 8.40999 19.4373 8.40999 19.2798Z" fill="black"/>
</g>
<defs>
<clipPath id="clip0_64_313">
<rect width="36" height="36" fill="white"/>
</clipPath>
</defs>
</svg>
