<svg width="34" height="34" viewBox="0 0 34 34" fill="none" xmlns="http://www.w3.org/2000/svg">
<path d="M21.021 13.7145V12.5127C21.3658 12.5844 21.7484 12.7219 21.7484 13.1006C21.7484 13.4474 21.3319 13.6587 21.021 13.7145ZM18.7109 6.33205C18.2126 6.33205 17.804 6.74064 17.804 7.24091C17.804 7.74118 18.2126 8.14977 18.7109 8.14977H22.8028C23.303 8.14977 23.7116 7.74118 23.7116 7.24091C23.7116 6.74064 23.303 6.33205 22.8028 6.33205H18.7109ZM18.3143 5.97128C18.4399 5.93141 18.5734 5.90947 18.7109 5.90947H22.8028C22.9403 5.90947 23.0738 5.93141 23.1994 5.97128L24.182 4.48839C24.3714 4.20341 24.2458 3.81472 23.9568 3.81472H17.5589C17.2699 3.81472 17.1424 4.20341 17.3318 4.48839L18.3144 5.97128H18.3143ZM18.5216 1.16591C22.2547 0.26106 26.1851 1.70605 28.4493 4.7894L28.0148 4.6738C27.7915 4.61404 27.5603 4.74756 27.5006 4.97277C27.4388 5.19601 27.5723 5.4272 27.7976 5.48697L29.2784 5.8836C29.5036 5.94336 29.7348 5.80984 29.7946 5.58463L30.1893 4.10371C30.2511 3.8785 30.1175 3.64928 29.8923 3.58747C29.6671 3.52771 29.4359 3.66123 29.3761 3.88644L29.2306 4.43453C26.7891 0.990411 22.458 -0.651878 18.3243 0.348669C18.0991 0.402458 17.9596 0.629708 18.0134 0.854919C18.0692 1.0821 18.2964 1.2197 18.5216 1.16591ZM30.1095 8.5265C30.1513 8.73175 30.1872 8.93706 30.2151 9.14237C30.4702 10.988 30.1712 12.8336 29.4119 14.47C28.7083 15.9847 27.6081 17.3161 26.189 18.2987L26.3126 17.8184C26.3685 17.5932 26.2329 17.3639 26.0097 17.3061C25.7844 17.2503 25.5552 17.3859 25.4974 17.6091L25.1208 19.08C25.055 19.3192 25.1926 19.5523 25.4357 19.6101L26.9066 19.9868C27.1299 20.0426 27.3591 19.9071 27.4169 19.6819C27.4747 19.4586 27.3391 19.2294 27.1139 19.1716L26.5957 19.0381C30.0497 16.6962 31.7778 12.4768 30.9327 8.35902C30.8869 8.13184 30.6657 7.98433 30.4365 8.03214C30.2092 8.07798 30.0637 8.29918 30.1096 8.52643L30.1095 8.5265ZM20.4948 11.8869V10.6831C20.1838 10.7389 19.7653 10.9502 19.7653 11.2989C19.7653 11.6757 20.148 11.8131 20.4948 11.8869ZM15.8787 12.1998C15.8787 10.5853 16.662 9.15629 17.8679 8.26937C18.0991 8.45675 18.3921 8.57031 18.711 8.57031H22.8028C23.1217 8.57031 23.4167 8.45668 23.646 8.26937C24.8518 9.15629 25.6351 10.5853 25.6351 12.1998C25.6351 14.8925 23.4506 17.0769 20.7579 17.0769C18.0653 17.0769 15.8788 14.8925 15.8788 12.1998H15.8787ZM19.2411 11.2989C19.2411 12.1081 19.7753 12.2915 20.4948 12.419V13.7145C20.2257 13.6667 19.8889 13.5132 19.7892 13.2381C19.6716 12.9153 19.1793 13.0946 19.2968 13.4175C19.4742 13.9058 20.0024 14.1789 20.4947 14.2447V14.7629C20.4947 15.1077 21.0208 15.1077 21.0208 14.7629V14.2447C21.6267 14.163 22.2745 13.7563 22.2745 13.1006C22.2745 12.2894 21.7403 12.106 21.0208 11.9785V10.683C21.2919 10.7328 21.6367 10.8903 21.7284 11.1713C21.836 11.5002 22.3343 11.3347 22.2267 11.0079C22.0613 10.5057 21.5211 10.2206 21.0208 10.1528V9.63463C21.0208 9.28982 20.4947 9.28982 20.4947 9.63463V10.1528C19.8868 10.2345 19.241 10.6412 19.241 11.2989H19.2411ZM14.0889 15.887C14.1347 15.6598 13.9852 15.4386 13.756 15.3927L12.2532 15.0957C12.024 15.0519 11.8028 15.1994 11.7589 15.4286L11.4619 16.9314C11.4161 17.1606 11.5656 17.3818 11.7948 17.4276C12.022 17.4715 12.2432 17.322 12.2891 17.0928L12.3867 16.5985C13.4351 18.0276 14.8184 19.1398 16.3809 19.8652C18.2524 20.7362 20.3811 21.0492 22.4958 20.6884C22.725 20.6485 22.8785 20.4313 22.8406 20.202C22.8007 19.9728 22.5835 19.8193 22.3542 19.8572C18.8125 20.4631 15.2049 19.0042 13.0763 16.1181L13.5945 16.2198C13.8237 16.2657 14.0449 16.1162 14.0888 15.887L14.0889 15.887ZM33.5456 23.0403C33.3184 21.4857 31.6083 20.7581 30.3407 21.4916C27.3471 23.2196 24.3992 25.0314 21.3657 26.6917C20.5684 27.1282 19.7393 27.7739 18.7727 27.5188L10.9537 25.448C10.6249 25.3603 10.7584 24.864 11.0833 24.9497L17.8419 26.7395C18.3103 26.8631 18.8086 26.8033 19.2312 26.5641C20.6164 25.7749 20.3693 23.6382 18.7608 23.1838L9.88545 20.806C9.20982 20.6247 8.57595 20.5968 7.95017 20.9575L0.430176 25.2986L4.34862 32.0871L6.52507 30.8315C7.14889 30.4707 7.66315 30.4627 8.3468 30.6461L17.2919 33.0419C18.0254 33.2392 18.8007 33.1336 19.4584 32.7549L32.4953 25.2269C33.2707 24.7804 33.6753 23.9234 33.5457 23.0405L33.5456 23.0403ZM11.0774 12.8614C11.3046 12.8156 11.4521 12.5923 11.4062 12.3651C11.3644 12.1658 11.3305 11.9645 11.3026 11.7652C11.0574 10.0273 11.3066 8.28723 11.9683 6.72468C12.5942 5.24776 13.5887 3.92835 14.8902 2.91585L14.8205 3.51182C14.7945 3.74301 14.96 3.95233 15.1912 3.9782C15.4223 4.00408 15.6317 3.8387 15.6575 3.60751L15.8329 2.08483C15.8588 1.85364 15.6934 1.64432 15.4622 1.61844L13.9395 1.44308C13.7083 1.41721 13.499 1.58258 13.4731 1.81377C13.4472 2.04496 13.6126 2.25421 13.8438 2.28015L14.2722 2.33C11.2407 4.75164 9.79376 8.698 10.581 12.5327C10.6288 12.7599 10.8501 12.9074 11.0772 12.8616L11.0774 12.8614Z" fill="black"/>
</svg>
